<?xml version="1.0" standalone="no"?>
<!DOCTYPE svg PUBLIC "-//W3C//DTD SVG 20010904//EN"
 "http://www.w3.org/TR/2001/REC-SVG-20010904/DTD/svg10.dtd">
<svg version="1.0" xmlns="http://www.w3.org/2000/svg"
 width="1920.000000pt" height="1200.000000pt" viewBox="0 0 1920.000000 1200.000000"
 preserveAspectRatio="xMidYMid meet">

<g transform="translate(0.000000,1200.000000) scale(0.100000,-0.100000)"
fill="#000000" stroke="none">
<path d="M0 9995 c0 -1907 1 -2005 17 -1997 10 6 37 13 60 17 l42 7 35 -72
c20 -40 36 -80 36 -89 0 -9 4 -21 8 -26 4 -6 16 -35 26 -65 10 -30 25 -68 32
-85 30 -70 47 -113 65 -170 48 -148 81 -317 69 -351 -5 -13 -4 -26 3 -33 8 -8
8 -11 -1 -11 -7 0 -21 9 -33 21 -21 21 -116 199 -158 299 -13 30 -39 86 -57
124 -19 38 -34 73 -34 78 0 5 -18 45 -39 89 -22 44 -43 94 -46 110 -4 16 -11
31 -16 34 -5 4 -9 -1529 -9 -3934 l0 -3941 1913 0 1912 0 29 25 c24 20 40 25
86 25 50 0 58 -3 70 -25 l13 -25 404 0 403 0 0 48 c0 42 4 51 39 85 69 67 165
59 230 -20 23 -27 31 -48 31 -75 l0 -38 170 0 170 0 0 30 c0 35 22 72 65 112
37 34 62 35 104 4 38 -28 57 -61 67 -111 l6 -35 1205 0 1205 0 -7 23 c-32 98
1 173 85 194 36 10 104 -1 128 -20 38 -30 47 -111 18 -168 l-14 -29 1312 0
1313 0 1 61 c1 81 18 114 75 150 38 23 58 29 107 29 111 0 166 -60 163 -178
l-1 -62 208 0 c129 0 211 4 215 10 3 6 19 10 35 10 16 0 32 -4 35 -10 4 -7
563 -10 1646 -10 l1639 0 0 30 c0 24 6 33 26 40 30 12 44 13 43 2 -1 -4 -1
-22 0 -39 l1 -33 55 0 c37 0 55 4 55 13 0 6 5 29 10 49 9 32 17 39 50 49 22 7
43 9 47 6 3 -4 -6 -29 -20 -56 -15 -27 -27 -51 -27 -55 0 -3 873 -6 1940 -6
l1940 0 0 1410 c0 1247 -2 1410 -15 1410 -8 0 -15 -4 -15 -10 0 -5 -11 -12
-24 -16 -13 -3 -35 -18 -49 -32 -13 -15 -57 -56 -98 -92 -40 -36 -81 -73 -91
-83 -10 -9 -20 -17 -23 -17 -3 0 -11 -4 -18 -10 -40 -31 -83 -68 -104 -89 -13
-14 -31 -26 -40 -27 -8 -2 -37 -12 -64 -23 -26 -12 -56 -21 -66 -21 -11 0 -23
-4 -28 -8 -6 -5 -30 -14 -55 -21 -25 -8 -61 -19 -81 -26 -63 -24 -272 -25
-317 -3 -20 10 -49 15 -77 13 -35 -3 -48 0 -58 16 -8 10 -33 33 -56 49 -23 17
-46 42 -51 56 -6 14 -23 33 -40 42 -33 19 -39 40 -12 48 9 3 24 9 32 14 40 25
116 55 220 90 63 22 153 53 200 69 47 17 95 31 107 31 12 0 24 4 28 9 3 5 20
13 38 17 17 3 55 16 82 29 108 47 316 80 410 65 73 -12 82 -9 154 53 25 21 60
45 78 54 l33 15 0 1837 c0 1189 -4 1831 -10 1821 -5 -8 -10 -25 -10 -37 0 -13
-4 -23 -10 -23 -10 0 -15 29 -10 60 1 10 -5 8 -19 -7 -12 -12 -21 -28 -21 -35
0 -23 -18 6 -23 37 -4 27 -4 26 -6 -7 -1 -33 -4 -37 -23 -35 -16 1 -23 -3 -22
-14 1 -11 -5 -15 -17 -12 -10 3 -28 -2 -41 -11 -12 -9 -38 -16 -58 -16 -23 0
-30 -3 -21 -9 10 -7 8 -12 -10 -25 -13 -9 -26 -12 -29 -6 -3 5 -19 1 -35 -10
-17 -11 -38 -20 -48 -20 -11 0 -31 -8 -45 -19 -15 -10 -50 -26 -79 -35 -28 -9
-57 -24 -63 -32 -7 -7 -27 -14 -46 -14 -18 0 -36 -4 -39 -10 -3 -5 -19 -10
-35 -10 -16 0 -32 -4 -35 -10 -3 -6 -1 -10 6 -10 32 0 -5 -12 -48 -16 -26 -2
-55 -7 -63 -10 -8 -4 -35 -8 -60 -10 -33 -3 -51 -11 -69 -32 -36 -40 -61 -38
-62 7 -2 30 -3 31 -6 9 -5 -30 -21 -36 -42 -16 -11 11 -13 9 -8 -9 3 -13 1
-23 -4 -23 -5 0 -9 -13 -9 -29 0 -17 -4 -33 -10 -36 -5 -3 -10 -21 -10 -38 0
-18 -12 -84 -26 -147 -33 -148 -50 -248 -79 -455 -8 -60 -22 -148 -30 -195 -9
-47 -20 -116 -25 -155 -12 -91 -27 -171 -30 -165 -7 14 -7 79 1 210 13 209 32
362 79 625 5 28 9 71 9 98 1 26 6 47 11 47 6 0 10 22 10 50 0 39 -4 52 -20 60
-16 8 -22 7 -32 -9 -6 -10 -17 -17 -23 -14 -7 2 -15 -6 -18 -18 l-6 -22 -21
24 c-13 16 -18 18 -14 6 5 -13 2 -16 -9 -11 -10 3 -24 -4 -38 -20 -14 -16 -33
-26 -50 -26 -16 0 -34 -8 -41 -19 -11 -15 -29 -21 -74 -23 -56 -3 -59 -5 -62
-31 -2 -15 -8 -27 -13 -27 -6 0 -8 8 -5 18 3 9 1 24 -4 32 -8 12 -10 9 -10
-11 0 -42 -12 -89 -22 -89 -5 0 -8 16 -6 35 1 19 -1 37 -5 41 -4 4 -7 -2 -7
-14 0 -32 -16 -35 -39 -6 -19 24 -21 25 -21 6 0 -11 5 -22 12 -24 8 -3 8 -9 1
-22 -9 -16 -11 -15 -21 11 -6 15 -11 44 -11 63 1 19 -3 52 -9 73 -6 21 -16
129 -23 240 -11 169 -16 204 -31 219 -10 10 -18 20 -18 22 0 16 -151 211 -208
269 -20 20 -32 37 -27 37 23 -1 135 -125 135 -149 0 -6 5 -11 11 -11 14 0 39
-25 39 -39 0 -6 4 -11 9 -11 5 0 12 -11 15 -25 4 -14 11 -25 16 -25 6 0 10 -4
10 -9 0 -14 44 -80 53 -81 4 0 7 26 7 58 0 31 4 91 10 132 5 41 14 118 20 170
14 132 24 183 55 275 54 157 61 170 129 248 72 82 200 138 296 129 99 -10 134
-24 195 -82 65 -62 95 -79 95 -55 0 9 4 23 9 33 5 9 33 89 61 177 29 88 63
180 75 205 76 150 95 180 155 240 85 85 89 88 152 111 78 28 155 25 231 -10
53 -23 69 -37 95 -80 18 -28 32 -58 32 -67 0 -8 6 -25 14 -37 25 -42 38 -130
33 -222 -6 -98 -23 -194 -38 -209 -5 -6 -9 -20 -9 -33 0 -12 -4 -32 -9 -45 -5
-13 -18 -50 -27 -83 -10 -33 -37 -98 -61 -144 -24 -46 -43 -89 -43 -96 0 -7
24 -17 53 -23 54 -11 167 -59 167 -71 0 -3 10 -17 23 -31 33 -37 67 -95 67
-116 0 -11 5 -26 10 -34 6 -10 10 900 10 2578 l0 2592 -1803 0 c-1748 0 -1805
-1 -1842 -19 -22 -10 -44 -17 -51 -14 -7 2 -15 0 -19 -6 -3 -6 -17 -11 -30
-11 -16 0 -25 7 -29 25 -9 35 -48 30 -94 -12 -7 -7 -19 -13 -27 -13 -7 0 -15
-5 -17 -11 -5 -16 -82 -16 -102 0 -9 7 -16 24 -16 37 l0 24 -150 0 -150 0 0
-38 c0 -21 -7 -47 -15 -58 -8 -10 -15 -27 -15 -37 0 -19 -23 -59 -52 -91 -10
-11 -18 -23 -18 -28 0 -33 -208 -257 -246 -266 -8 -2 -14 -8 -14 -13 0 -5 -19
-18 -42 -30 -24 -12 -51 -30 -60 -41 -9 -11 -34 -24 -55 -30 -21 -6 -50 -19
-65 -29 -14 -11 -36 -19 -48 -19 -12 0 -30 -5 -41 -10 -15 -9 -19 -7 -19 6 0
13 -7 15 -37 9 -21 -4 -44 -11 -50 -17 -9 -7 -13 -7 -13 1 0 6 -14 2 -32 -9
-39 -23 -38 -23 -62 -5 -18 13 -18 16 -4 32 9 10 19 29 23 42 l7 24 -26 -19
c-14 -11 -33 -36 -43 -56 -19 -43 -38 -54 -48 -30 -5 12 -14 -2 -31 -48 -13
-36 -31 -78 -39 -95 -15 -29 -15 -27 -9 35 4 36 10 72 14 80 4 8 10 44 14 80
10 100 36 200 71 270 7 14 15 38 19 54 4 15 15 47 25 70 11 22 22 48 25 56 3
8 15 29 26 45 11 17 23 37 27 45 3 8 9 17 12 20 12 10 71 89 71 94 0 3 -252 6
-561 6 -418 0 -558 -3 -553 -11 5 -8 -1 -10 -20 -7 -21 4 -26 1 -27 -16 0 -11
-3 -15 -6 -8 -2 6 -13 12 -24 12 -10 0 -19 -6 -19 -12 0 -9 -4 -8 -11 2 -8 11
-12 12 -16 3 -2 -7 -13 -13 -23 -13 -9 0 -23 -7 -30 -15 -7 -8 -25 -15 -41
-15 -15 0 -30 -4 -33 -9 -3 -5 -22 -12 -41 -15 -19 -4 -35 -11 -35 -15 0 -5
-15 -14 -32 -21 -18 -8 -40 -19 -48 -26 -8 -6 -31 -15 -50 -20 -19 -4 -42 -9
-50 -12 -8 -2 -35 -7 -60 -11 -25 -4 -65 -20 -90 -37 -77 -52 -73 -53 -65 10
9 70 -3 72 -45 6 -18 -27 -36 -50 -40 -50 -5 0 -12 -9 -15 -20 -9 -27 -33 -25
-38 3 -2 12 -5 1 -6 -25 -1 -59 -9 -78 -27 -71 -19 7 -19 223 1 318 8 38 13
71 11 73 -2 2 -28 2 -59 0 l-54 -3 24 -75 c29 -89 47 -226 32 -249 -8 -13 -9
-13 -6 -1 2 8 -2 28 -10 44 l-15 28 -29 -32 c-18 -20 -35 -30 -45 -26 -8 3
-12 2 -9 -3 9 -16 -15 -23 -32 -9 -14 11 -15 10 -9 -9 8 -25 -5 -36 -47 -38
-28 -2 -29 -1 -11 12 18 13 18 14 -6 11 -14 -2 -31 -7 -39 -12 -8 -5 -54 -15
-103 -22 -50 -8 -96 -20 -104 -29 -9 -8 -18 -15 -22 -16 -25 -3 -48 -10 -78
-24 -19 -9 -39 -13 -44 -10 -6 4 -14 -4 -19 -17 l-10 -23 0 23 c-1 13 -5 21
-10 18 -10 -6 6 -85 20 -101 13 -14 11 -63 -4 -68 -6 -2 -20 1 -29 7 -23 14
-34 1 -15 -19 9 -8 33 -15 54 -15 22 0 43 -4 49 -9 5 -5 27 -11 49 -14 47 -5
173 -36 197 -48 10 -5 29 -9 44 -9 25 0 139 -25 179 -40 45 -16 124 -40 185
-55 118 -30 207 -56 265 -80 17 -7 57 -20 90 -29 136 -38 200 -60 292 -97 53
-21 102 -39 109 -39 6 0 25 -7 40 -15 16 -8 39 -15 51 -15 12 0 25 -4 28 -10
3 -5 15 -10 25 -10 10 0 25 -6 32 -14 8 -7 29 -17 46 -21 18 -3 32 -10 32 -14
0 -4 21 -12 48 -19 26 -7 88 -32 137 -56 50 -24 122 -58 160 -77 39 -18 72
-35 75 -38 8 -10 49 -31 59 -31 6 0 25 21 43 47 40 58 66 90 97 117 13 12 42
38 65 59 60 56 111 89 196 124 182 76 277 95 465 96 177 0 245 -16 379 -89 36
-20 113 -100 132 -136 8 -16 19 -28 25 -28 5 0 13 -10 18 -23 5 -13 25 -57 45
-98 42 -88 57 -142 63 -228 3 -44 2 -61 -6 -57 -6 4 -11 26 -11 50 0 23 -7 65
-16 92 -21 67 -76 184 -86 184 -4 0 -8 9 -8 20 0 11 -5 20 -11 20 -5 0 -7 5
-4 10 4 6 -5 10 -19 10 -14 0 -26 5 -26 10 0 6 -7 10 -16 10 -26 0 -11 -22 29
-43 64 -33 49 -47 -50 -47 -118 0 -156 -12 -183 -55 -23 -37 -40 -45 -40 -19
0 14 -3 14 -16 3 -13 -10 -20 -10 -43 4 -26 15 -29 15 -59 -3 -17 -11 -53 -20
-83 -21 -29 -2 -71 -9 -94 -17 -22 -7 -65 -18 -95 -23 -30 -5 -64 -14 -75 -18
-35 -15 -130 -33 -151 -29 -19 5 -19 5 1 12 11 4 30 12 43 17 55 22 69 28 102
39 19 7 44 16 55 20 11 5 37 11 58 15 20 3 37 9 37 13 0 9 62 31 153 57 31 8
57 17 57 19 0 10 -164 -2 -168 -12 -2 -7 2 -12 10 -12 11 0 11 -2 -1 -9 -15
-10 -51 -3 -51 10 0 5 -18 8 -40 7 -22 -1 -40 -5 -40 -10 0 -4 -22 -8 -48 -8
-26 0 -53 -5 -59 -11 -6 -6 -55 -12 -109 -14 -55 -1 -126 -10 -159 -19 -91
-25 -163 -18 -186 16 -6 10 -49 -51 -49 -68 0 -11 102 -74 119 -74 6 0 11 -4
11 -9 0 -5 12 -12 28 -16 15 -3 68 -30 117 -59 50 -30 113 -66 140 -81 28 -15
59 -35 71 -46 11 -10 26 -19 32 -19 7 0 12 -4 12 -10 0 -5 6 -10 13 -10 6 0
50 -25 97 -56 47 -31 101 -64 120 -74 19 -10 44 -27 55 -37 11 -10 45 -34 75
-53 65 -41 65 -41 111 -80 20 -16 40 -30 44 -30 8 0 83 -57 105 -80 8 -9 31
-27 50 -40 19 -13 54 -44 77 -67 23 -24 46 -43 51 -43 4 0 27 -18 51 -40 23
-22 47 -40 52 -40 5 0 9 -3 9 -7 0 -9 61 -46 66 -40 2 2 -1 19 -6 38 -23 90
-32 181 -27 284 9 172 21 219 94 373 32 68 159 222 182 222 3 0 19 12 35 28
16 15 41 35 55 44 26 17 26 20 27 145 1 115 12 188 34 233 4 9 11 39 15 68 4
29 11 54 16 58 5 3 9 14 9 24 0 10 11 39 24 64 14 26 21 46 18 46 -4 0 -2 4 3
8 6 4 25 30 42 57 33 52 149 169 199 201 16 10 34 23 41 29 26 23 77 60 97 71
209 112 313 139 536 138 115 0 164 -5 240 -23 52 -13 100 -27 105 -31 6 -5 48
-27 95 -51 47 -23 105 -62 130 -86 111 -108 130 -128 136 -145 3 -10 9 -18 14
-18 4 0 10 -8 14 -17 3 -10 14 -31 25 -48 11 -16 29 -61 41 -98 13 -41 29 -71
39 -74 81 -25 284 -112 315 -135 21 -15 43 -28 49 -28 19 0 144 -90 202 -147
185 -178 282 -360 312 -586 7 -53 -6 -144 -23 -161 -8 -8 -14 -21 -14 -30 0
-19 -22 -34 -28 -18 -7 22 -23 13 -34 -19 -10 -29 -13 -31 -49 -26 -22 3 -37
1 -34 -3 3 -5 -4 -11 -15 -15 -11 -3 -20 -11 -20 -16 0 -5 -7 -9 -15 -9 -8 0
-15 -6 -15 -13 0 -15 -38 -40 -50 -32 -22 14 -31 -68 -10 -89 6 -6 10 -20 10
-32 0 -13 5 -26 11 -30 11 -7 4 -66 -11 -94 -7 -12 -11 -9 -19 13 -10 26 -14
28 -44 22 -17 -4 -43 -15 -57 -25 -14 -10 -44 -18 -70 -18 -24 -1 -46 -6 -48
-11 -2 -6 -10 -11 -18 -11 -8 0 -14 -4 -14 -9 0 -8 -40 -16 -136 -26 -65 -6
-112 -30 -120 -59 -3 -14 -9 -26 -13 -27 -54 -6 -80 -20 -93 -47 -8 -15 -20
-27 -28 -28 -26 -1 -70 -27 -70 -41 0 -7 -9 -21 -20 -30 -11 -10 -20 -23 -20
-30 0 -7 -11 -13 -25 -13 -19 0 -28 -8 -39 -35 -20 -48 -39 -46 -30 3 3 20 12
47 20 59 8 12 14 33 14 46 0 12 5 28 12 35 8 8 8 15 -2 26 -13 16 -35 12 -25
-5 4 -5 0 -9 -8 -9 -8 0 -20 -14 -26 -31 -7 -21 -16 -29 -25 -26 -19 8 -33
-10 -41 -55 -4 -21 -11 -38 -15 -38 -12 0 -31 27 -29 42 1 7 1 37 0 66 -1 61
-20 70 -39 20 -12 -32 -13 -32 -28 -13 -15 20 -16 20 -40 -8 l-24 -28 -21 48
c-12 26 -25 59 -31 73 l-10 25 -10 -25 c-5 -15 -6 -33 0 -45 10 -23 5 -48 -9
-39 -5 3 -9 14 -9 25 0 26 -32 25 -56 -2 -13 -15 -15 -22 -6 -28 9 -5 9 -12
-3 -27 -18 -24 -19 -51 -2 -57 6 -2 -5 -6 -25 -8 -20 -3 -34 -1 -31 4 3 4 -3
7 -13 5 -12 -2 -20 4 -22 17 -5 27 -22 44 -22 23 0 -9 -5 -29 -10 -44 l-11
-28 -21 22 -22 21 -10 -21 c-17 -32 -28 -24 -47 29 -32 94 -41 112 -52 110 -6
-1 -13 7 -15 18 -2 11 -8 24 -13 29 -17 18 -31 -51 -32 -156 -1 -81 -4 -105
-13 -98 -8 7 -15 5 -24 -5 -12 -14 -15 -14 -31 1 -14 13 -21 13 -40 3 -13 -7
-30 -18 -37 -26 -7 -7 -23 -13 -35 -13 -12 0 -31 -7 -41 -15 -20 -15 -20 -15
0 -16 15 -1 13 -3 -6 -8 -14 -4 -38 -4 -54 1 -16 4 -34 4 -40 -1 -12 -10 -40
-64 -50 -94 -5 -15 -9 -16 -26 -7 -21 11 -27 35 -10 45 20 12 70 94 77 126 10
46 10 135 0 146 -12 11 -37 -26 -37 -54 0 -13 -7 -26 -15 -29 -8 -3 -17 -16
-21 -27 -3 -12 -17 -37 -31 -55 -27 -36 -62 -42 -89 -15 -9 10 -26 18 -38 19
-12 1 -28 4 -36 7 -38 14 -80 16 -80 4 -1 -7 -6 -5 -14 6 -18 24 -51 21 -63
-5 l-11 -23 -12 28 c-7 15 -17 27 -22 27 -5 0 -23 13 -41 30 -30 28 -47 37
-47 24 0 -3 15 -20 33 -37 18 -18 48 -52 67 -77 19 -25 42 -52 51 -60 28 -27
169 -207 169 -216 0 -2 5 -10 10 -17 41 -49 49 -61 44 -66 -3 -3 -12 3 -20 14
-25 34 -47 56 -189 190 -76 72 -157 149 -181 173 -24 23 -47 42 -51 42 -4 0
-22 14 -40 30 -31 29 -72 42 -57 19 11 -18 -19 -29 -41 -15 -34 22 -83 27 -99
11 -8 -8 -22 -15 -31 -15 -12 0 -16 -6 -12 -20 3 -11 1 -22 -3 -25 -13 -8 2
-50 28 -79 12 -15 22 -30 22 -36 0 -5 9 -14 20 -20 11 -6 20 -17 20 -25 0 -8
3 -15 8 -15 9 0 33 -52 27 -59 -3 -2 -14 4 -25 15 -32 31 -49 44 -60 44 -5 0
-10 3 -10 8 0 10 -57 72 -65 72 -6 0 -42 32 -181 165 -97 92 -117 110 -193
168 -42 32 -91 71 -109 86 -18 16 -48 36 -65 44 -18 9 -48 32 -66 51 -19 20
-53 46 -75 57 -23 12 -43 24 -46 28 -17 23 -390 258 -480 303 -25 12 -66 36
-92 54 -26 18 -61 38 -78 45 -16 8 -30 17 -30 21 0 5 -8 8 -18 8 -9 0 -48 18
-86 40 -37 22 -73 40 -78 40 -5 0 -22 6 -36 14 -52 28 -258 124 -297 139 -22
8 -74 31 -115 50 -41 19 -100 42 -130 52 -51 16 -112 39 -185 70 -16 7 -55 20
-85 29 -30 10 -62 21 -70 25 -9 5 -31 12 -50 16 -19 4 -41 11 -50 16 -44 24
-88 38 -245 81 -22 6 -74 22 -115 35 -106 36 -211 62 -242 63 -15 0 -30 5 -33
10 -3 6 -18 10 -34 10 -15 0 -72 12 -126 26 -154 41 -228 56 -405 83 -31 5
-65 11 -75 14 -28 9 -178 37 -250 47 -33 5 -109 16 -170 25 -60 8 -164 20
-230 25 -66 6 -172 14 -235 20 -395 34 -678 41 -1025 27 -256 -10 -416 -21
-735 -51 -212 -20 -409 -48 -429 -60 -7 -5 -38 -12 -69 -17 -140 -20 -253 -38
-332 -54 -47 -9 -103 -19 -125 -22 -22 -3 -45 -10 -52 -15 -7 -5 -36 -14 -65
-18 -47 -8 -80 -16 -218 -50 -19 -5 -57 -14 -85 -20 -27 -6 -62 -17 -77 -25
-14 -8 -36 -15 -47 -15 -12 0 -21 -4 -21 -9 0 -7 -48 -19 -157 -38 -18 -3 -33
-8 -33 -12 0 -4 -12 -8 -26 -9 -15 -1 -40 -8 -55 -16 -16 -8 -43 -18 -61 -21
-18 -4 -37 -11 -43 -15 -5 -3 -37 -14 -70 -24 -33 -9 -68 -21 -77 -27 -10 -5
-24 -9 -31 -9 -12 0 -86 -30 -172 -70 -11 -5 -56 -21 -100 -36 -44 -14 -99
-37 -123 -50 -23 -13 -47 -24 -53 -24 -10 0 -23 -5 -111 -44 -20 -9 -39 -16
-44 -16 -4 0 -15 -6 -23 -13 -9 -8 -34 -21 -56 -29 -22 -9 -67 -28 -100 -43
-33 -16 -62 -27 -64 -26 -2 2 -7 -1 -10 -6 -5 -8 -97 -54 -171 -87 -14 -5 -43
-22 -65 -37 -22 -14 -67 -41 -100 -59 -33 -18 -67 -39 -76 -46 -8 -8 -21 -14
-27 -14 -7 0 -12 -3 -12 -8 0 -4 -9 -12 -19 -17 -94 -48 -124 -65 -175 -102
-32 -24 -64 -43 -72 -43 -8 0 -14 -4 -14 -10 0 -5 -6 -10 -12 -10 -7 0 -33
-16 -58 -36 -25 -20 -54 -40 -65 -45 -21 -10 -57 -31 -65 -39 -16 -16 -90 -69
-119 -86 -19 -10 -47 -30 -62 -44 -40 -36 -54 -46 -66 -51 -12 -4 -87 -64
-114 -91 -10 -9 -27 -22 -39 -28 -14 -8 -19 -17 -15 -30 3 -11 1 -28 -5 -37
-8 -15 -9 -13 -4 10 9 41 -15 35 -73 -20 -75 -70 -173 -157 -187 -165 -7 -4
-32 -26 -57 -50 -24 -24 -55 -53 -69 -64 -14 -12 -36 -35 -50 -53 -14 -17 -29
-31 -35 -31 -6 0 -24 -17 -40 -37 -17 -20 -50 -58 -75 -83 -65 -68 -111 -119
-150 -170 -19 -25 -37 -47 -41 -50 -3 -3 -41 -52 -85 -110 -43 -58 -86 -114
-96 -124 -10 -11 -21 -28 -24 -39 -6 -19 -14 -30 -66 -90 -15 -18 -28 -36 -28
-41 0 -5 -11 -24 -25 -42 -14 -18 -25 -37 -25 -42 0 -6 -4 -12 -9 -14 -5 -1
-30 -43 -56 -93 -26 -49 -53 -97 -61 -105 -7 -9 -32 -56 -54 -105 -23 -50 -45
-97 -51 -105 -5 -8 -13 -25 -19 -37 -5 -13 -19 -42 -30 -65 -11 -23 -20 -46
-20 -51 0 -5 -7 -24 -15 -43 -8 -19 -21 -49 -29 -66 -8 -18 -27 -71 -41 -118
-15 -47 -40 -121 -56 -166 -16 -44 -29 -87 -29 -95 0 -9 -3 -19 -7 -23 -5 -4
-13 -33 -19 -64 -7 -31 -22 -104 -34 -162 -13 -58 -26 -130 -31 -160 -4 -30
-15 -104 -25 -165 -22 -140 -31 -610 -14 -735 32 -240 47 -329 85 -480 8 -30
17 -80 20 -111 7 -55 6 -57 -24 -78 -17 -12 -31 -29 -31 -36 0 -8 -9 -16 -20
-19 -11 -3 -29 -9 -40 -12 -14 -4 -20 -1 -20 10 0 20 -10 20 -37 1 -19 -13
-22 -13 -27 1 -3 8 -10 12 -16 9 -13 -8 -13 -75 0 -75 6 0 10 -9 10 -19 0 -11
7 -47 16 -81 14 -57 14 -63 -1 -87 -14 -21 -15 -27 -4 -35 11 -8 10 -9 -3 -4
-13 4 -18 0 -18 -12 0 -15 -2 -15 -10 -2 -6 9 -6 16 0 18 11 4 -43 52 -58 52
-6 0 -12 -3 -15 -7 -2 -5 -2 -2 -1 4 2 7 0 23 -5 35 -7 20 -8 20 -16 2 -7 -18
-8 -17 -16 6 -6 18 -7 12 -3 -20 3 -25 9 -46 14 -48 5 -2 12 -20 16 -40 4 -20
10 -39 13 -42 3 -3 14 -34 23 -70 16 -59 16 -66 1 -82 -9 -10 -26 -18 -37 -18
-12 0 -30 -7 -40 -15 -11 -8 -27 -15 -37 -15 -9 0 -30 -7 -45 -15 -16 -8 -37
-15 -46 -15 -9 0 -20 -5 -23 -10 -4 -6 -21 -8 -39 -5 -23 5 -36 2 -45 -9 -8
-9 -22 -16 -32 -16 -11 0 -19 -7 -19 -15 0 -12 17 -15 92 -15 106 0 159 -19
196 -72 87 -127 92 -136 106 -224 17 -108 20 -294 5 -314 -9 -13 -10 -13 -6 2
3 9 3 19 0 22 -6 6 -33 -19 -33 -31 0 -15 -25 -63 -32 -63 -5 0 -8 12 -8 27 0
33 -18 20 -23 -17 -3 -16 -12 -27 -28 -31 -13 -3 -23 -11 -21 -17 1 -7 -7 -12
-18 -12 -10 0 -34 -14 -52 -30 -18 -17 -45 -42 -60 -55 -15 -14 -34 -25 -42
-25 -9 0 -16 -5 -16 -10 0 -6 -5 -9 -12 -8 -7 2 -17 -7 -23 -19 -5 -13 -18
-23 -27 -23 -14 0 -18 -8 -18 -37 l0 -38 -21 35 c-12 19 -25 37 -29 40 -4 3
-10 18 -14 34 -10 41 -48 89 -58 74 -4 -7 -5 2 -2 20 4 19 2 32 -4 32 -6 0
-13 13 -17 30 -4 16 -10 30 -15 30 -5 0 -12 15 -15 32 -4 18 -11 38 -16 43 -4
6 -14 31 -22 55 -59 180 -65 265 -24 350 27 55 28 72 4 52 -10 -8 -13 -7 -13
7 0 13 6 17 21 14 11 -2 14 -1 8 3 -7 3 -13 12 -13 20 0 11 -4 10 -19 -4 -10
-9 -18 -19 -18 -22 -2 -27 -6 -31 -13 -10 -8 24 -8 24 -9 3 -1 -13 -6 -23 -11
-23 -6 0 -15 -10 -20 -23 -9 -22 -9 -22 -10 3 -1 22 -2 23 -11 7 -8 -14 -6
-29 10 -62 12 -25 21 -50 21 -57 0 -9 3 -8 10 2 8 12 10 12 10 -5 -1 -19 -31
-65 -44 -65 -3 0 -3 15 0 33 4 24 3 28 -5 17 -6 -8 -11 -23 -11 -33 0 -10 -4
-15 -10 -12 -5 3 -10 -1 -10 -10 0 -10 -7 -15 -17 -13 -10 2 -22 -5 -28 -16
-5 -11 -23 -24 -39 -29 -44 -15 -68 -38 -54 -54 13 -17 -4 -17 -21 -1 -10 11
-15 10 -25 -4 -7 -10 -19 -18 -27 -18 -8 0 -21 -13 -30 -28 -12 -21 -30 -32
-78 -45 -34 -9 -69 -26 -78 -37 -10 -11 -30 -20 -45 -20 -15 0 -31 -8 -37 -18
-6 -9 -11 -12 -11 -6 0 5 4 14 10 20 6 6 6 15 0 24 -7 11 -10 11 -10 2 0 -7
-5 -10 -10 -7 -6 4 -8 10 -5 15 3 4 -2 13 -10 20 -12 10 -15 38 -15 129 0 111
-9 157 -24 132 -4 -6 -2 -11 4 -11 8 0 11 -51 9 -170 -1 -94 0 -172 2 -173 10
-7 77 -27 88 -27 7 0 10 4 7 9 -5 8 3 8 34 1 3 0 -3 -5 -13 -11 -17 -10 -16
-13 12 -42 17 -18 39 -43 49 -57 l20 -24 7 34 c9 41 112 146 171 174 27 14 65
20 128 22 106 3 139 -10 202 -79 41 -45 43 -50 84 -222 14 -62 25 -325 13
-307 -7 9 -16 7 -39 -13 -16 -14 -38 -25 -50 -25 -11 0 -29 -9 -41 -19 -11
-10 -35 -27 -53 -36 -20 -11 -29 -20 -21 -24 10 -7 -91 -59 -147 -76 -12 -3
-22 -10 -22 -15 0 -7 -31 -21 -55 -24 -34 -5 -76 -32 -87 -57 -14 -30 -28 -38
-28 -16 0 8 -9 22 -19 31 -10 9 -21 29 -24 44 -3 15 -11 47 -17 72 -6 25 -14
70 -18 100 -4 30 -13 64 -20 75 -10 18 -12 17 -13 -15 -1 -19 -1 -95 -1 -169
1 -74 -1 -138 -4 -143 -3 -5 -12 -4 -19 2 -12 10 -30 4 -95 -32 -75 -40 -93
-48 -115 -50 -17 -2 -25 -8 -25 -20 0 -10 -4 -18 -8 -18 -20 0 -134 133 -148
172 -4 10 -13 18 -20 18 -8 0 -14 10 -14 23 0 12 -7 31 -15 41 -8 11 -15 28
-15 38 0 10 -4 18 -9 18 -4 0 -14 26 -20 58 -12 64 -33 103 -45 84 -4 -7 -2
-12 3 -12 6 0 11 -10 11 -22 l0 -22 -16 22 c-16 23 -34 29 -34 12 0 -5 7 -10
16 -10 12 0 15 -6 11 -21 -11 -40 92 -296 139 -350 20 -22 17 -39 -5 -39 -11
0 -22 -6 -24 -12 -4 -10 -7 -10 -15 0 -9 13 -23 11 -81 -15 -23 -10 -36 -12
-44 -4 -7 7 -18 6 -38 -4 -25 -14 -31 -13 -62 5 -69 41 -122 129 -152 251 -10
41 -24 91 -31 112 -8 22 -14 77 -14 133 0 85 3 100 27 141 32 56 75 83 129 83
l41 0 -8 38 c-4 20 -15 69 -24 107 -8 39 -18 88 -21 110 -3 22 -12 54 -20 72
-8 18 -14 64 -14 112 0 69 4 90 30 144 41 87 58 100 133 105 54 3 67 0 100
-22 21 -14 42 -26 48 -26 6 0 7 -4 4 -10 -3 -5 -2 -10 4 -10 5 0 11 3 13 8 5
12 65 42 84 42 10 0 32 5 49 12 32 11 32 12 39 94 7 98 40 182 78 203 23 12
29 11 57 -10 17 -12 31 -25 31 -28 0 -4 11 -18 25 -33 14 -15 34 -45 46 -67
11 -23 24 -41 27 -41 3 0 25 11 49 25 34 21 43 31 43 53 -1 55 -56 228 -101
314 -5 10 -9 31 -9 47 0 17 -4 33 -10 36 -5 3 -10 17 -10 30 0 13 -6 39 -14
57 -8 18 -19 60 -25 93 -6 33 -14 69 -16 80 -4 14 6 33 31 60 19 22 43 54 51
70 33 63 99 145 116 145 8 0 80 52 97 70 10 10 81 40 95 40 8 0 15 3 15 8 0
10 107 39 190 53 84 13 220 28 340 37 l95 7 -3 45 c-2 25 -9 106 -17 180 -26
252 -24 571 4 770 6 41 18 125 27 185 8 61 17 121 20 135 3 14 9 45 14 70 27
147 34 178 46 202 8 15 14 38 14 52 0 14 4 27 9 30 4 3 11 25 15 48 8 48 12
63 57 203 17 55 35 105 39 110 4 6 10 21 13 35 9 42 36 112 86 223 26 54 60
157 76 227 8 30 21 82 30 115 9 33 20 76 25 95 30 124 59 213 100 305 9 22 25
65 34 95 10 30 21 64 26 75 22 51 69 186 85 240 10 33 21 68 26 77 13 26 11
43 -10 67 -16 18 -20 19 -25 5 -9 -24 -7 -46 4 -39 12 8 13 -15 1 -34 -7 -10
-13 -5 -26 23 -10 21 -22 33 -28 29 -8 -5 -7 -8 1 -11 16 -5 16 -42 0 -42 -7
0 -25 15 -40 33 -20 22 -28 27 -28 15 0 -9 5 -18 12 -20 14 -5 4 -38 -12 -38
-5 0 -10 7 -10 15 0 8 -4 15 -10 15 -18 0 -10 -32 9 -37 12 -3 17 -11 14 -20
-3 -8 -11 -12 -18 -9 -7 2 -18 -1 -24 -7 -18 -18 -24 -1 -24 65 0 63 0 63 -13
28 -7 -19 -13 -50 -13 -67 -1 -18 -5 -33 -11 -33 -5 0 -10 -18 -10 -39 0 -22
-4 -42 -9 -45 -5 -3 -11 -23 -14 -43 -9 -62 -19 -97 -32 -113 -7 -8 -21 -49
-30 -90 -9 -41 -20 -84 -25 -95 -4 -11 -15 -42 -23 -70 -9 -27 -27 -81 -40
-120 -13 -38 -32 -99 -42 -135 -10 -36 -35 -112 -56 -170 -22 -58 -39 -120
-39 -137 0 -18 -4 -34 -9 -37 -5 -4 -12 -25 -16 -48 -4 -23 -11 -49 -15 -58
-25 -49 -41 -100 -70 -220 -21 -84 -29 -112 -33 -116 -5 -6 -1 65 14 231 15
170 20 209 30 220 5 5 9 22 9 38 0 15 4 37 10 47 9 16 26 98 50 235 17 97 38
181 72 285 50 150 68 214 68 237 0 13 -22 34 -67 64 -124 82 -141 94 -188 134
-47 39 -89 80 -151 147 -18 18 -48 65 -69 103 -20 39 -41 74 -46 80 -5 5 -9
18 -9 30 0 12 -4 25 -9 31 -31 30 -52 344 -30 449 11 55 35 123 48 135 14 13
51 70 51 80 0 5 4 10 9 10 5 0 12 12 16 27 7 31 129 151 195 193 52 32 214
110 230 110 5 0 18 4 28 9 39 20 123 41 225 56 217 33 665 3 812 -54 11 -5 47
-17 80 -27 33 -10 81 -31 106 -46 25 -15 49 -28 53 -28 13 0 142 -89 162 -111
11 -13 34 -35 50 -49 41 -35 117 -141 151 -211 15 -32 30 -58 33 -58 3 -1 16
8 30 19 70 56 229 170 236 170 5 0 27 16 49 36 22 20 50 40 63 45 12 5 66 39
118 76 107 76 100 57 74 188 -28 146 -32 207 -26 375 7 207 22 274 91 435 7
17 16 37 19 45 28 69 144 204 202 236 22 11 64 34 94 51 30 16 69 33 85 36 17
3 55 11 85 18 70 15 363 5 440 -15 30 -7 82 -28 115 -45 33 -17 66 -31 73 -31
6 0 12 -5 12 -11 0 -5 4 -8 9 -5 18 12 18 -21 0 -35 -30 -22 -23 -39 16 -39
28 0 35 -4 35 -20 0 -11 -7 -20 -15 -20 -16 0 -20 -21 -35 -175 -5 -60 -15
-114 -20 -119 -6 -6 -103 -15 -217 -22 -161 -8 -186 -11 -109 -13 87 -1 175
-10 255 -27 21 -4 22 -7 9 -22 -8 -9 -18 -25 -21 -34 -4 -10 -14 -18 -24 -18
-14 0 -15 -2 -4 -9 9 -6 10 -11 2 -15 -6 -4 -15 -5 -20 -2 -5 3 -11 -1 -15 -9
-3 -10 1 -15 14 -15 10 0 22 -4 25 -10 3 -5 -2 -10 -11 -10 -13 0 -15 -3 -8
-10 12 -12 47 -2 38 11 -3 5 8 9 25 9 16 0 56 11 88 24 32 13 78 29 103 36 25
7 65 22 90 33 75 33 82 35 180 67 52 17 109 37 125 45 83 38 127 55 144 55 11
0 23 5 26 10 3 6 14 10 24 10 22 0 97 36 107 51 5 8 1 8 -14 0 -11 -6 -23 -11
-26 -11 -15 0 -78 78 -83 102 -3 16 -10 31 -14 34 -5 3 -9 16 -9 28 0 23 -1
23 -42 9 -29 -10 -44 -11 -52 -3 -7 7 -14 4 -22 -12 l-12 -21 -6 21 c-4 12
-12 22 -17 22 -17 0 -44 35 -59 75 -19 54 -16 167 6 200 21 32 63 55 101 55
15 0 33 4 38 8 6 4 10 82 10 204 l0 198 -207 0 c-201 0 -208 -1 -208 -20 0
-22 -12 -25 -41 -10 -10 6 -19 7 -19 2 0 -4 -18 -16 -40 -26 -21 -9 -54 -36
-72 -59 -18 -23 -41 -51 -52 -62 -23 -24 -116 -167 -116 -178 0 -4 -18 -32
-40 -62 -22 -30 -40 -58 -40 -63 0 -13 -29 -36 -37 -29 -6 6 44 173 58 192 7
11 56 100 98 179 14 28 43 68 63 90 l37 41 -126 3 c-77 2 -130 -1 -137 -8 -13
-13 -39 -13 -31 0 4 6 -6 10 -24 10 -28 0 -30 -3 -41 -57 -7 -32 -16 -67 -20
-78 -10 -24 -18 -94 -26 -240 -6 -110 -14 -154 -14 -77 0 22 -4 43 -9 46 -4 3
-11 27 -14 53 -3 27 -11 77 -17 113 -7 38 -10 101 -6 153 l6 87 -30 0 c-26 0
-29 -3 -21 -18 5 -10 11 -49 12 -87 l2 -69 -55 -2 c-80 -2 -138 -14 -138 -27
0 -7 16 -66 35 -132 19 -66 35 -124 35 -129 0 -15 -36 27 -55 65 -10 19 -29
48 -42 65 -40 53 -92 221 -93 302 l0 32 -510 0 c-496 0 -510 -1 -510 -19 0
-11 5 -21 12 -23 6 -2 12 -14 13 -25 1 -14 -3 -19 -12 -16 -7 3 -13 0 -13 -5
0 -7 -18 -9 -46 -6 -25 2 -43 0 -40 -4 3 -5 -14 -9 -37 -10 -64 0 -67 -1 -67
-17 0 -9 -12 -21 -28 -28 -18 -8 -26 -18 -24 -29 4 -20 -8 -24 -25 -7 -6 6
-21 9 -34 7 -18 -2 -23 -10 -24 -33 0 -16 -8 -44 -18 -62 -9 -18 -17 -36 -16
-40 4 -21 -2 -33 -16 -33 -8 0 -15 7 -15 15 0 8 -4 15 -10 15 -6 0 -6 -9 1
-23 9 -20 6 -31 -20 -69 -17 -25 -31 -51 -31 -56 0 -6 -10 -18 -22 -26 -12 -9
-19 -16 -15 -16 5 0 1 -7 -7 -16 -9 -8 -16 -22 -16 -30 0 -8 -4 -14 -10 -14
-5 0 -10 -5 -10 -10 0 -6 -13 -29 -30 -52 -17 -22 -30 -47 -30 -54 0 -7 -4
-14 -8 -16 -4 -1 -23 -38 -41 -80 -19 -43 -37 -78 -41 -78 -4 0 -10 -10 -13
-22 -7 -31 -84 -258 -96 -283 -23 -50 -63 -195 -76 -272 -4 -24 -11 -43 -16
-43 -5 0 -9 1 -9 3 0 1 9 61 20 132 24 160 46 264 70 330 45 124 103 271 110
280 18 22 80 148 76 153 -3 2 1 11 9 19 17 16 20 37 5 28 -14 -9 -12 29 2 43
7 7 9 12 6 12 -4 0 0 23 8 51 16 54 14 65 -11 56 -11 -5 -14 -17 -11 -48 5
-56 -3 -83 -19 -69 -12 10 -12 48 0 98 3 12 1 22 -5 22 -5 0 -10 -8 -10 -17 0
-10 -7 -31 -15 -47 -19 -36 -19 -46 0 -46 8 0 15 -6 15 -14 0 -17 -27 -29 -36
-15 -8 14 -39 -37 -74 -125 -16 -39 -42 -100 -58 -136 -16 -36 -42 -117 -57
-180 -15 -63 -33 -130 -41 -148 -8 -18 -14 -43 -14 -55 -1 -12 -7 -33 -15 -47
-8 -14 -15 -41 -16 -60 l-1 -35 -8 35 c-5 19 -4 42 1 52 5 9 9 38 9 65 1 26 5
68 11 93 6 25 14 72 20 105 5 33 18 77 29 97 11 21 23 56 26 78 4 22 10 40 15
40 5 0 9 14 9 31 0 17 5 40 12 52 18 33 38 89 38 111 0 14 -3 16 -13 7 -8 -6
-17 -8 -20 -4 -4 3 -7 -2 -7 -12 0 -20 -17 -80 -31 -107 -5 -10 -9 -27 -9 -38
0 -12 -4 -18 -10 -15 -6 4 -10 -8 -10 -29 0 -19 -6 -41 -12 -48 -7 -7 -13 -23
-13 -35 0 -13 -4 -23 -10 -22 -5 1 -17 -16 -26 -36 -17 -37 -17 -37 -29 -15
-6 12 -15 52 -20 89 -4 36 -8 55 -10 41 -2 -24 -3 -24 -10 5 -6 23 -8 25 -9 8
-1 -30 -19 -38 -24 -11 -2 13 -5 1 -7 -27 -1 -27 -4 -41 -7 -30 -10 47 -13 49
-30 26 -13 -20 -15 -42 -9 -140 13 -218 27 -689 18 -581 -2 24 -7 47 -11 50
-15 11 -43 204 -58 395 -6 79 -7 86 -15 55 -5 -19 -9 -43 -9 -52 0 -10 -8 -18
-18 -18 -28 0 -52 -23 -55 -54 -2 -16 -8 -31 -13 -35 -13 -8 -23 -38 -30 -86
-3 -22 -9 -44 -14 -50 -5 -5 -9 -15 -9 -22 0 -8 -7 -25 -16 -39 l-17 -25 -20
33 c-47 74 -109 193 -172 333 -8 17 -25 54 -39 83 -13 29 -28 66 -31 82 -4 17
-11 32 -16 35 -5 4 -9 21 -9 39 0 17 -5 37 -12 44 -17 17 -17 214 0 219 6 3
12 13 12 24 0 26 59 84 104 103 31 13 46 14 84 4 26 -6 55 -15 66 -20 17 -9
18 -7 13 24 -3 18 -13 78 -22 133 -9 55 -17 135 -18 177 l-2 78 -1332 0 -1333
0 0 -2005z m15445 1857 c2 -47 0 -84 -5 -87 -6 -3 -10 -11 -10 -17 0 -6 7 -5
17 3 15 13 16 11 11 -14 -4 -20 0 -31 12 -40 20 -14 30 -81 14 -97 -6 -6 -21
-7 -43 0 -33 9 -81 -5 -96 -30 -3 -5 -13 -10 -22 -10 -9 0 -24 -7 -34 -16 -37
-33 -87 28 -75 92 8 40 42 70 88 78 41 7 118 -9 118 -24 0 -6 7 -10 15 -10 19
0 19 10 -1 39 -12 17 -16 41 -14 80 1 31 2 63 2 71 -1 24 10 72 14 67 2 -2 6
-40 9 -85z m-10830 -8 c31 -33 48 -90 35 -115 -6 -10 -10 -30 -10 -44 0 -19
-6 -29 -21 -32 -12 -4 -18 -11 -15 -20 3 -8 2 -12 -3 -9 -5 3 -23 -22 -41 -57
-18 -34 -38 -69 -45 -77 -11 -13 -21 -49 -39 -145 -2 -11 -8 -38 -14 -60 -10
-42 -23 -142 -43 -330 -9 -94 -22 -172 -46 -283 l-5 -23 -16 23 c-20 28 -20
95 2 283 26 223 30 291 17 299 -7 5 -11 -4 -12 -26 0 -18 -3 -27 -6 -21 -2 7
-22 23 -44 35 -32 18 -42 31 -56 75 -9 29 -20 53 -25 53 -4 0 -8 5 -8 10 0 14
26 13 52 -2 29 -17 98 -87 98 -100 0 -7 5 -6 14 1 20 17 29 94 30 261 1 126 4
150 21 180 11 19 22 46 25 60 6 28 82 90 111 90 11 0 31 -12 44 -26z m11033
-100 c13 -9 22 -26 22 -41 0 -15 -3 -23 -7 -20 -4 4 -12 -6 -19 -23 -9 -21
-27 -36 -56 -49 -66 -28 -78 -20 -78 50 0 56 2 60 33 79 39 24 75 25 105 4z
m-2340 -90 c137 -40 246 -125 319 -248 35 -60 73 -185 73 -242 0 -45 -38 -218
-49 -222 -5 -2 -6 -13 -3 -24 4 -18 2 -20 -14 -13 -10 4 -29 10 -41 12 -13 3
-23 10 -23 15 0 6 -7 7 -16 4 -10 -4 -13 -2 -8 6 5 8 -5 9 -37 3 -24 -4 -64
-7 -89 -8 -25 0 -49 -3 -55 -7 -5 -4 -19 -3 -30 1 -18 9 -18 9 3 5 12 -2 22 0
22 5 0 5 -23 6 -53 3 -37 -4 -62 -2 -78 7 -13 7 -60 16 -103 19 -66 6 -82 11
-97 29 -19 23 -44 20 -35 -5 4 -10 -2 -14 -18 -14 -25 0 -44 29 -26 40 15 10
23 71 12 99 -9 24 -10 25 -163 28 -143 3 -215 8 -264 17 -11 2 -26 4 -32 5
-25 2 -4 77 28 101 4 3 10 17 14 31 3 14 17 37 31 52 13 14 24 33 24 42 0 20
11 33 85 106 33 32 74 65 90 73 73 36 105 46 141 44 24 0 61 9 94 25 46 22 70
26 148 26 59 1 115 -5 150 -15z m-1074 -183 c3 -5 15 -7 25 -4 10 3 22 0 25
-6 5 -8 -14 -11 -58 -11 -67 0 -95 -13 -51 -24 27 -7 34 -26 10 -26 -30 0 -63
-30 -59 -53 4 -20 4 -20 -6 2 -12 27 -6 52 22 99 16 26 26 32 53 32 19 0 36
-4 39 -9z m-8847 -53 c-3 -8 -6 -5 -6 6 -1 11 2 17 5 13 3 -3 4 -12 1 -19z
m12147 -121 c9 -14 5 -22 -17 -41 -15 -13 -27 -28 -27 -34 0 -5 -27 -23 -59
-40 -55 -28 -61 -29 -74 -14 -22 27 -27 50 -16 79 15 40 46 65 98 79 49 13 73
5 95 -29z m-10807 -9 c25 -27 33 -59 16 -65 -7 -3 -13 2 -13 11 0 9 -2 16 -4
16 -2 0 -13 3 -23 6 -17 5 -17 5 0 -6 15 -10 15 -13 3 -26 -8 -8 -23 -14 -33
-14 -14 0 -15 2 -4 9 8 5 -10 10 -50 13 -35 3 -68 2 -74 -2 -17 -13 -65 -18
-71 -8 -6 10 14 28 75 65 52 31 149 32 178 1z m10953 -38 c0 -5 -10 -10 -22
-9 -22 0 -22 1 -3 9 11 5 21 9 23 9 1 1 2 -3 2 -9z m-13490 -39 c30 -22 38
-58 14 -63 -12 -2 -18 -17 -21 -57 -2 -32 -12 -66 -24 -82 -10 -15 -19 -32
-19 -38 0 -7 -9 -9 -23 -6 -24 6 -54 -16 -44 -32 3 -5 -13 -7 -36 -5 -23 2
-37 0 -31 -5 69 -51 24 -223 -58 -223 -31 0 -36 -14 -15 -45 19 -28 28 -82 18
-103 -5 -9 -17 -35 -27 -57 -33 -71 -62 -95 -112 -95 -53 0 -158 35 -187 62
-30 28 -25 107 11 159 33 48 74 79 103 79 26 0 38 25 21 45 -24 29 -11 134 21
168 25 28 19 30 -25 12 -25 -11 -36 -21 -32 -30 6 -16 -24 -9 -37 9 -5 6 -5 0
-2 -12 6 -21 4 -23 -13 -18 -11 4 -23 2 -27 -4 -4 -6 -23 -10 -42 -8 -18 1
-37 -2 -41 -7 -21 -29 -68 -7 -88 40 -40 98 14 211 118 246 32 10 46 10 76 -1
79 -28 136 -96 134 -159 -1 -31 0 -33 16 -18 9 8 28 17 41 19 19 2 28 13 39
48 23 73 41 104 85 153 27 28 53 47 72 50 48 8 108 -2 135 -22z m6160 -221 c0
-5 12 -16 28 -24 32 -18 26 -20 -17 -5 -28 10 -44 39 -21 39 6 0 10 -4 10 -10z
m4525 -30 c3 -6 -1 -7 -9 -4 -18 7 -21 14 -7 14 6 0 13 -4 16 -10z m-4551 -22
c-15 -7 -28 -7 -40 1 -16 9 -12 10 21 10 35 0 37 -2 19 -11z m-4033 -29 c9
-13 20 -48 24 -77 5 -48 4 -53 -12 -50 -25 5 -50 75 -35 99 19 30 14 44 -8 24
-11 -10 -20 -13 -20 -7 0 7 4 12 10 12 5 0 7 7 3 16 -9 25 17 13 38 -17z
m3864 1 c3 -5 1 -10 -4 -10 -6 0 -11 5 -11 10 0 6 2 10 4 10 3 0 8 -4 11 -10z
m65 0 c0 -5 -9 -10 -21 -10 -11 0 -17 5 -14 10 3 6 13 10 21 10 8 0 14 -4 14
-10z m-104 -7 c-10 -10 -67 -12 -60 -2 3 5 19 9 36 9 17 0 28 -3 24 -7z m98
-22 c3 -5 -11 -11 -32 -13 -42 -6 -53 -1 -32 12 19 12 57 13 64 1z m-2354 -25
c0 -3 -4 -8 -10 -11 -5 -3 -10 -1 -10 4 0 6 5 11 10 11 6 0 10 -2 10 -4z
m1880 -1 c0 -2 -9 -9 -20 -15 -16 -9 -18 -8 -14 5 5 13 34 22 34 10z m315 -5
c4 -7 -3 -8 -22 -4 -38 9 -42 14 -10 14 14 0 29 -5 32 -10z m-113 -16 c29 2
36 1 15 -1 -20 -2 -36 -7 -33 -11 2 -4 -17 -7 -42 -7 -36 0 -47 4 -50 17 -3
14 1 16 27 8 17 -5 55 -7 83 -6z m2175 7 c34 0 81 -5 105 -12 24 -6 86 -11
138 -10 62 0 104 -4 121 -13 18 -9 49 -12 102 -8 82 5 98 -1 45 -17 -33 -9
-33 -9 -5 -10 16 -1 26 -5 22 -10 -3 -6 38 -8 102 -7 60 2 99 0 88 -5 -11 -4
-38 -8 -59 -8 -22 -1 -37 -4 -33 -7 3 -3 43 -3 89 1 57 5 77 10 63 16 -19 7
-19 8 3 8 12 1 22 -3 22 -9 0 -5 19 -10 42 -10 23 0 39 -3 36 -6 -3 -3 -30 -6
-59 -6 l-54 -1 49 -13 c27 -7 71 -15 98 -18 54 -5 78 -16 35 -16 -29 0 -38
-20 -9 -21 14 0 14 -2 -3 -9 -18 -8 -17 -9 6 -9 15 -1 42 5 60 13 27 12 30 15
13 19 -10 3 19 4 66 4 67 -2 84 -5 82 -16 -2 -8 3 -18 10 -23 12 -8 -4 -6 -72
9 -23 5 -24 6 -5 13 19 8 19 9 -3 9 -26 1 -70 -35 -58 -46 11 -11 30 -10 38 2
5 6 8 6 8 -2 0 -7 7 -13 16 -13 22 0 56 -43 41 -52 -24 -15 15 -38 65 -38 56
0 131 -32 91 -38 -15 -2 -23 -11 -24 -25 -2 -22 -2 -22 -6 1 -4 22 -7 22 -149
22 l-144 0 0 -94 c0 -108 -5 -116 -78 -124 -54 -6 -71 -23 -72 -69 0 -18 -4
-33 -9 -33 -4 0 -13 15 -18 33 l-11 32 -7 -32 c-7 -31 -10 -33 -51 -33 l-44 0
0 -70 0 -70 -79 0 c-46 0 -81 4 -83 10 -4 12 -66 -7 -85 -26 -7 -7 -13 -28
-13 -46 0 -18 -6 -44 -13 -58 -12 -23 -17 -25 -79 -22 -61 4 -68 2 -81 -20 -9
-12 -18 -58 -22 -100 l-7 -78 -237 -1 c-181 -1 -230 -4 -208 -12 58 -23 17
-47 -81 -47 -33 0 -49 -5 -63 -22 -11 -11 -19 -25 -19 -30 0 -5 -10 -8 -22 -7
-13 1 -42 1 -65 1 -39 -2 -43 -4 -43 -27 0 -23 -4 -25 -42 -26 -24 -1 -47 -1
-52 0 -6 1 -21 0 -34 -4 -17 -4 -22 -11 -18 -22 4 -9 1 -20 -6 -25 -10 -6 -10
-10 -1 -16 8 -5 9 -13 3 -22 -6 -8 -10 -25 -10 -37 0 -21 -5 -23 -56 -23 -45
0 -61 5 -80 23 -13 12 -24 30 -24 40 0 15 -8 17 -55 16 -52 -2 -54 -3 -62 -33
-4 -17 -8 -35 -8 -41 -1 -25 -17 -32 -59 -28 -38 5 -48 2 -73 -21 -20 -19 -24
-29 -16 -34 9 -6 9 -18 2 -47 l-10 -40 -149 3 c-143 4 -148 3 -155 -17 -4 -14
-14 -21 -28 -20 -12 1 -41 1 -64 1 -36 -2 -43 -5 -43 -22 0 -18 -7 -20 -80
-20 -71 0 -80 2 -80 19 0 15 -10 19 -62 24 -57 5 -65 4 -80 -16 -17 -22 -17
-22 25 -24 57 -4 117 -23 117 -38 0 -18 -71 -30 -80 -14 -6 8 -13 6 -26 -10
-10 -11 -24 -21 -31 -21 -7 0 -13 -6 -14 -12 0 -10 -2 -10 -6 0 -3 9 -38 12
-124 12 -117 0 -119 0 -119 -22 l0 -23 -19 24 -18 23 -11 -28 c-6 -16 -12 -42
-14 -59 -3 -30 -4 -30 -63 -30 -58 0 -60 1 -74 32 -8 18 -23 35 -33 39 -27 8
-101 -39 -137 -88 -17 -23 -31 -38 -31 -32 0 5 -18 -11 -40 -36 -27 -31 -39
-40 -40 -28 0 12 -5 15 -16 11 -8 -3 -13 -11 -10 -18 2 -7 -1 -21 -8 -30 -11
-15 -31 -17 -149 -16 -118 2 -137 0 -137 -14 0 -13 -28 -15 -223 -15 -123 0
-226 -2 -228 -4 -3 -3 -3 -24 -1 -46 l4 -41 20 20 c24 27 118 30 139 5 8 -10
9 -18 3 -22 -6 -4 -13 -15 -17 -24 -6 -16 -22 -18 -145 -18 -112 0 -142 -3
-152 -15 -10 -12 -48 -15 -226 -15 -117 0 -215 -4 -218 -9 -15 -24 7 -41 55
-41 38 0 51 -5 63 -22 8 -12 13 -25 10 -30 -3 -4 -68 -8 -145 -8 -86 0 -139
-4 -139 -10 0 -6 -71 -10 -192 -10 -106 0 -203 -3 -216 -6 -12 -4 -29 -19 -38
-35 -13 -27 -19 -29 -72 -29 -97 0 -99 -2 -94 -71 3 -39 1 -59 -7 -59 -6 0
-12 -8 -12 -17 -1 -17 -2 -17 -6 0 -5 19 -13 20 -102 11 -47 -5 -61 -11 -61
-23 0 -12 -5 -10 -18 7 l-18 23 -12 -26 c-7 -14 -12 -49 -12 -78 0 -49 -2 -53
-32 -66 -42 -19 -134 -15 -159 7 -12 10 -19 29 -19 51 l0 35 -22 -23 c-20 -22
-26 -23 -130 -19 -104 4 -109 4 -123 -18 -26 -40 -19 -44 65 -44 80 0 80 0 80
-26 l0 -26 -80 7 c-56 5 -80 4 -80 -4 0 -6 -17 -11 -40 -11 -22 0 -40 5 -40
10 0 6 -18 10 -40 10 -22 0 -40 -4 -40 -10 0 -5 10 -10 22 -10 15 0 19 -3 11
-11 -13 -13 -587 -13 -591 1 -9 25 -22 6 -22 -30 l0 -40 -70 0 c-63 0 -70 -2
-70 -20 0 -18 -7 -20 -80 -20 -73 0 -80 2 -80 20 0 11 -4 20 -9 20 -12 0 -71
59 -71 71 0 14 -53 24 -58 11 -4 -14 -28 -16 -36 -3 -3 4 3 19 14 31 11 13 20
27 20 32 0 12 73 108 82 108 4 0 8 9 8 20 0 11 3 20 8 20 4 0 16 16 26 35 11
19 22 35 26 35 5 0 35 37 68 83 34 45 70 89 82 97 12 8 28 26 35 40 8 14 59
72 115 130 56 58 113 120 127 138 14 17 30 32 36 32 12 0 57 47 57 61 0 5 5 9
11 9 7 0 18 8 25 18 11 15 40 18 261 24 810 21 769 19 770 39 1 12 -7 19 -25
23 -24 4 -521 16 -789 18 -57 1 -103 3 -103 6 0 6 44 41 52 42 3 0 24 17 45
38 21 20 63 55 93 76 30 22 63 48 72 57 10 10 39 32 65 50 27 18 54 39 62 46
7 8 38 30 69 49 30 20 62 43 71 52 9 8 40 31 71 50 30 20 57 39 58 44 2 4 9 8
16 8 7 0 26 12 42 26 16 14 43 32 59 41 17 8 56 33 87 54 32 22 61 39 64 39 4
0 50 27 103 59 53 33 113 67 134 77 20 10 37 21 37 26 0 4 8 8 18 8 9 0 28 9
42 20 14 11 31 20 38 20 7 0 15 7 18 15 4 8 12 15 18 15 10 0 98 43 242 118
11 5 35 17 54 25 19 8 73 33 120 56 47 23 91 41 98 41 7 0 39 12 70 26 70 32
106 47 157 67 168 65 203 80 227 92 14 8 35 15 46 15 12 0 24 5 27 10 3 6 15
10 26 10 21 0 177 48 194 59 13 9 81 30 280 86 88 25 185 53 215 61 59 17 181
43 243 51 20 3 40 9 43 14 3 5 20 9 38 9 19 0 50 7 69 15 20 8 68 18 107 21
39 4 73 11 76 15 3 5 25 9 49 9 24 0 55 4 69 10 15 5 69 13 121 16 53 4 98 11
101 15 3 5 29 9 57 9 29 0 65 7 81 15 15 8 51 15 80 15 28 0 92 5 141 11 320
38 528 47 1015 43 217 -1 423 -3 457 -3z m-2317 -9 c0 -13 -12 -22 -22 -16
-10 6 -1 24 13 24 5 0 9 -4 9 -8z m-407 -19 c-7 -2 -19 -2 -25 0 -7 3 -2 5 12
5 14 0 19 -2 13 -5z m84 -27 c-8 -8 -26 -18 -41 -22 -38 -9 -33 -34 7 -35 29
-1 27 -2 -18 -15 -59 -16 -99 -18 -90 -4 3 6 17 7 29 4 16 -4 25 0 30 11 3 9
2 13 -3 10 -5 -3 -12 -1 -15 4 -4 5 -2 12 4 16 6 4 8 10 5 15 -3 4 15 11 40
14 24 4 47 12 51 17 3 6 8 8 11 5 3 -3 -1 -12 -10 -20z m128 14 c-3 -5 -17
-10 -31 -10 -14 0 -22 4 -19 10 3 6 17 10 31 10 14 0 22 -4 19 -10z m3120 -20
c-4 -6 7 -10 26 -10 18 0 30 -3 26 -6 -3 -4 -28 -3 -54 1 -42 7 -45 9 -23 16
14 4 26 7 28 8 2 1 0 -3 -3 -9z m-8553 -43 c6 -8 23 -12 37 -10 24 4 25 3 9
-10 -21 -16 -23 -38 -7 -54 18 -18 2 -43 -27 -43 -19 0 -25 -4 -21 -14 6 -14
-26 -33 -46 -28 -4 1 -18 -3 -30 -10 -34 -19 -97 -19 -97 -1 0 27 39 80 87
120 25 21 51 43 57 50 14 16 23 16 38 0z m55 7 c-3 -3 -12 -4 -19 -1 -8 3 -5
6 6 6 11 1 17 -2 13 -5z m5069 -1 c-10 -11 -36 -12 -36 -2 0 5 10 9 22 9 12 0
18 -3 14 -7z m227 0 c-7 -2 -19 -2 -25 0 -7 3 -2 5 12 5 14 0 19 -2 13 -5z
m-322 -16 c37 7 39 -12 2 -21 -25 -7 -44 6 -42 29 0 6 3 5 5 -2 4 -8 16 -10
35 -6z m3854 -7 c7 -12 -2 -12 -30 0 -19 8 -19 9 2 9 12 1 25 -3 28 -9z m145
-10 l85 -7 -80 -1 c-56 -1 -88 3 -105 14 -17 10 -18 13 -5 8 11 -3 58 -10 105
-14z m-4072 -12 c15 -15 37 -20 87 -20 l40 0 -48 -10 c-34 -7 -55 -7 -70 0
-12 6 -32 14 -45 17 -12 4 -20 11 -17 16 9 13 39 11 53 -3z m162 -8 c12 -8 11
-10 -7 -10 -13 0 -23 5 -23 10 0 13 11 13 30 0z m-5023 -6 c-3 -3 -12 -4 -19
-1 -8 3 -5 6 6 6 11 1 17 -2 13 -5z m9091 -1 c-10 -2 -28 -2 -40 0 -13 2 -5 4
17 4 22 1 32 -1 23 -4z m-4378 -13 c0 -5 -7 -10 -15 -10 -8 0 -15 5 -15 10 0
6 7 10 15 10 8 0 15 -4 15 -10z m4486 -10 c13 0 26 -5 30 -11 4 -7 -1 -9 -15
-5 -11 3 -30 9 -41 12 -11 3 -20 10 -20 17 0 8 3 8 12 -1 7 -7 22 -12 34 -12z
m-4375 -9 c13 -12 17 -21 10 -26 -6 -3 -11 0 -11 7 0 8 -3 9 -8 3 -4 -5 -15
-10 -24 -11 -48 -2 -59 -5 -54 -13 3 -5 -14 -12 -39 -15 -24 -4 -47 -11 -50
-17 -4 -5 -15 -9 -26 -9 -11 0 -43 -7 -70 -16 -27 -9 -52 -14 -55 -11 -12 11
83 48 139 54 39 4 54 9 45 15 -8 5 -2 6 16 2 21 -5 27 -4 22 5 -5 7 1 11 14
11 12 0 18 5 15 10 -3 6 1 10 9 10 9 0 16 5 16 10 0 16 29 11 51 -9z m4309 9
c0 -5 -5 -10 -11 -10 -5 0 -7 5 -4 10 3 6 8 10 11 10 2 0 4 -4 4 -10z m-4466
-15 c-4 -8 -10 -15 -15 -15 -4 0 -6 7 -3 15 4 8 10 15 15 15 4 0 6 -7 3 -15z
m-4954 -39 c0 -3 -4 -8 -10 -11 -5 -3 -10 -1 -10 4 0 6 5 11 10 11 6 0 10 -2
10 -4z m9383 -37 c-6 -6 -23 -9 -39 -6 -29 4 -28 4 4 6 17 0 32 6 32 13 0 6 3
8 7 5 4 -4 2 -12 -4 -18z m-4683 -49 c0 -6 -8 -14 -17 -17 -10 -4 -20 -10 -23
-14 -8 -11 -51 1 -44 12 3 5 16 9 29 9 13 0 27 5 30 10 8 13 25 13 25 0z
m7380 -10 c0 -5 -10 -10 -22 -10 -19 0 -20 2 -8 10 19 13 30 13 30 0z m-7500
-16 c0 -2 -9 -4 -21 -4 -11 0 -18 4 -14 10 5 8 35 3 35 -6z m-50 -25 c0 -4 -7
-6 -15 -3 -8 4 -15 10 -15 15 0 4 7 6 15 3 8 -4 15 -10 15 -15z m-41 -40 c-19
-12 -24 -2 -8 17 9 11 14 13 17 4 3 -7 -2 -16 -9 -21z m4651 -199 c0 -12 -8
-12 -35 0 -18 8 -17 9 8 9 15 1 27 -3 27 -9z m-5270 -24 c0 -3 -4 -8 -10 -11
-5 -3 -10 -1 -10 4 0 6 5 11 10 11 6 0 10 -2 10 -4z m-90 -38 c0 -6 -6 -5 -15
2 -8 7 -15 14 -15 16 0 2 7 1 15 -2 8 -4 15 -11 15 -16z m60 -3 c0 -8 -7 -15
-15 -15 -9 0 -12 6 -9 15 4 8 10 15 15 15 5 0 9 -7 9 -15z m5268 -27 c-9 -13
-18 -22 -22 -20 -3 1 -28 2 -56 2 -43 0 -50 3 -50 20 0 18 7 20 71 20 l71 0
-14 -22z m-5332 -10 c-9 -5 -24 -7 -34 -5 -14 3 -12 6 8 14 29 12 50 5 26 -9z
m-121 -8 c-3 -5 -17 -10 -31 -10 -14 0 -22 4 -19 10 3 6 17 10 31 10 14 0 22
-4 19 -10z m-75 -55 c0 -2 -10 -9 -22 -15 -22 -11 -22 -10 -4 4 21 17 26 19
26 11z m-4059 -45 c51 -27 104 -107 120 -186 11 -53 10 -66 -6 -107 -10 -26
-21 -47 -25 -47 -4 0 -23 -13 -41 -30 -19 -16 -43 -30 -55 -30 -11 0 -46 23
-77 51 -47 42 -60 61 -73 107 -21 73 -15 188 12 225 31 42 83 48 145 17z
m4069 10 c0 -5 -5 -10 -11 -10 -5 0 -7 5 -4 10 3 6 8 10 11 10 2 0 4 -4 4 -10z
m-663 -356 c-3 -3 -12 -4 -19 -1 -8 3 -5 6 6 6 11 1 17 -2 13 -5z m-160 -160
c-3 -3 -12 -4 -19 -1 -8 3 -5 6 6 6 11 1 17 -2 13 -5z m-3746 -62 c16 -14 29
-29 29 -34 0 -5 10 -25 23 -46 13 -20 31 -57 41 -82 10 -25 25 -59 32 -77 8
-17 14 -35 14 -41 0 -5 11 -29 24 -54 13 -25 27 -59 31 -76 3 -18 11 -32 16
-32 5 0 9 -9 9 -20 0 -10 7 -36 16 -57 9 -21 20 -47 25 -58 4 -11 26 -64 48
-117 22 -54 43 -109 47 -123 4 -15 17 -49 30 -76 13 -27 24 -55 24 -62 0 -7 6
-21 14 -32 7 -11 17 -31 21 -45 7 -22 131 -275 199 -405 14 -27 26 -58 26 -67
0 -9 5 -20 10 -23 6 -3 10 -16 10 -29 0 -13 13 -49 29 -82 26 -55 52 -113 70
-159 5 -11 16 -47 26 -80 9 -33 22 -71 27 -85 24 -60 48 -147 48 -176 0 -16 4
-34 10 -40 5 -5 12 -39 15 -74 l5 -65 -30 90 c-17 50 -44 118 -60 151 -17 34
-30 68 -30 75 0 12 -19 70 -40 124 -12 32 -53 119 -123 265 -35 74 -71 150
-78 168 -8 17 -16 32 -19 32 -3 0 -14 17 -25 38 -10 20 -26 45 -34 55 -17 21
-43 23 -35 2 4 -9 -1 -18 -12 -22 -11 -5 -20 -19 -22 -33 -4 -45 -10 -51 -39
-44 -16 4 -33 11 -39 15 -14 11 -24 1 -24 -23 0 -12 -5 -18 -12 -15 -18 6 -48
-11 -48 -28 0 -7 -5 -15 -11 -17 -13 -4 9 -92 41 -162 10 -23 29 -72 43 -111
13 -38 32 -90 41 -115 9 -25 16 -56 16 -68 0 -13 7 -36 15 -52 9 -17 12 -31 8
-31 -5 -1 -15 -2 -23 -3 -8 0 -18 -14 -21 -31 -5 -23 -7 -25 -8 -7 -1 28 -17
29 -24 1 -3 -12 -10 -18 -17 -14 -7 4 -13 -1 -17 -13 -5 -19 -5 -19 -28 2 -31
29 -155 246 -155 272 0 11 -4 24 -9 30 -16 15 -91 165 -91 180 0 8 -4 22 -10
32 -28 51 -83 216 -120 357 -67 259 -73 295 -100 540 -11 110 -15 481 -5 550
9 57 36 125 56 142 37 30 129 22 170 -15z m3569 18 c0 -5 -5 -10 -11 -10 -5 0
-7 5 -4 10 3 6 8 10 11 10 2 0 4 -4 4 -10z m12400 -120 c0 -5 -2 -10 -4 -10
-3 0 -8 5 -11 10 -3 6 -1 10 4 10 6 0 11 -4 11 -10z m-1690 -122 c0 -4 -7 -8
-15 -8 -8 0 -15 -4 -15 -10 0 -5 -5 -10 -11 -10 -5 0 -7 5 -4 10 3 6 -4 10
-16 10 -21 0 -21 1 -5 19 15 16 22 18 42 9 13 -6 24 -15 24 -20z m-6596 -149
c-3 -5 -10 -7 -15 -3 -5 3 -7 10 -3 15 3 5 10 7 15 3 5 -3 7 -10 3 -15z
m-6910 -54 c8 -8 20 -15 26 -15 6 0 9 -4 6 -9 -3 -5 1 -11 9 -15 8 -3 15 -12
15 -21 0 -9 6 -26 14 -38 27 -44 39 -148 40 -350 1 -157 -2 -201 -11 -199 -8
1 -13 -8 -13 -23 0 -14 -4 -25 -10 -25 -5 0 -10 -11 -10 -25 0 -30 -20 -33
-27 -5 -6 24 -23 16 -23 -11 0 -10 -4 -19 -10 -19 -5 0 -10 11 -10 25 0 14 -4
25 -9 25 -5 0 -11 6 -14 13 -2 6 -2 -1 0 -18 3 -27 2 -28 -7 -7 -5 12 -14 22
-20 22 -12 0 -14 27 -1 32 4 2 6 30 3 63 -3 43 -7 54 -13 40 l-8 -20 -2 20
c-1 11 -6 -25 -10 -80 -16 -228 -22 -285 -32 -285 -14 0 -47 40 -64 80 -18 40
-19 144 -4 455 15 305 31 374 92 398 28 11 78 7 93 -8z m1076 -75 c0 -5 -4
-10 -10 -10 -5 0 -10 5 -10 10 0 6 5 10 10 10 6 0 10 -4 10 -10z m-143 -32
c-3 -8 -6 -5 -6 6 -1 11 2 17 5 13 3 -3 4 -12 1 -19z m12638 12 c3 -5 1 -10
-4 -10 -6 0 -11 5 -11 10 0 6 2 10 4 10 3 0 8 -4 11 -10z m-14907 -452 c23
-23 14 -75 -18 -108 -45 -46 -76 -38 -80 20 -5 65 -1 88 18 93 34 9 68 7 80
-5z m1745 -15 c22 -21 22 -35 -3 -63 -11 -13 -25 -42 -31 -64 -6 -23 -25 -79
-41 -126 -16 -47 -43 -128 -60 -180 -17 -52 -34 -104 -39 -115 -4 -11 -15 -56
-24 -100 -41 -193 -75 -197 -56 -6 14 144 28 223 66 386 8 39 20 91 25 118 12
62 54 153 77 166 22 13 61 5 86 -16z m3538 -103 c65 0 119 -2 119 -4 0 -2 3
-11 6 -20 5 -13 -13 -15 -124 -18 -112 -3 -129 -1 -124 12 5 13 3 13 -11 2 -9
-8 -24 -12 -34 -10 -16 3 -14 7 11 33 19 18 31 25 34 17 2 -8 38 -12 123 -12z
m-201 -20 c0 -5 -18 -10 -40 -10 -22 0 -40 5 -40 10 0 6 18 10 40 10 22 0 40
-4 40 -10z m-313 -242 c-2 -13 -4 -3 -4 22 0 25 2 35 4 23 2 -13 2 -33 0 -45z
m-4818 15 c14 -11 31 -86 31 -133 0 -31 4 -60 9 -65 5 -6 11 -48 14 -95 3 -47
15 -152 27 -235 36 -260 38 -345 6 -345 -40 0 -76 100 -130 361 -20 96 -44
206 -55 244 -34 128 -43 180 -39 225 3 41 6 45 33 51 28 6 95 1 104 -8z m4978
-55 c-3 -8 -6 -5 -6 6 -1 11 2 17 5 13 3 -3 4 -12 1 -19z m-4751 -43 c27 -18
35 -74 35 -253 0 -141 -5 -194 -22 -249 -5 -17 -9 -51 -8 -75 2 -63 -10 -160
-23 -175 -8 -11 -14 -8 -25 14 -19 35 -29 366 -18 596 6 137 9 157 24 157 9 0
26 -7 37 -15z m4471 -11 c-3 -3 -12 -4 -19 -1 -8 3 -5 6 6 6 11 1 17 -2 13 -5z
m-1662 -31 c16 -22 8 -43 -16 -43 -10 0 -19 -6 -19 -14 0 -7 -7 -19 -15 -26
-17 -14 -21 -65 -5 -55 6 3 10 -1 10 -10 0 -21 -35 -67 -44 -58 -11 11 -6 23
9 23 17 0 20 35 4 45 -6 4 -13 -2 -16 -14 -3 -12 -12 -21 -19 -21 -19 0 -18 6
14 59 15 25 34 60 42 76 28 59 36 64 55 38z m-2134 -53 c5 0 9 -5 9 -11 0 -8
-5 -8 -15 1 -8 7 -14 22 -14 34 2 20 2 20 6 -1 2 -13 9 -23 14 -23z m2919 -13
c0 -27 -22 -35 -83 -30 -60 5 -87 16 -87 34 0 5 38 9 85 9 63 0 85 -3 85 -13z
m-774 -53 c-3 -8 -10 -14 -16 -14 -14 0 -12 47 3 53 14 5 21 -17 13 -39z m800
-61 c-10 -10 -19 5 -10 18 6 11 8 11 12 0 2 -7 1 -15 -2 -18z m-935 -15 c4
-44 -22 -98 -48 -98 -11 0 -13 -7 -7 -32 6 -28 5 -31 -8 -20 -17 14 -29 6 -22
-13 3 -7 0 -16 -6 -20 -23 -14 -21 -1 16 108 4 10 13 16 21 13 8 -3 11 -1 8 4
-10 17 6 34 17 19 7 -11 9 -9 7 6 -2 33 0 45 11 45 6 0 11 -6 11 -12z m896
-24 c-3 -3 -12 -4 -19 -1 -8 3 -5 6 6 6 11 1 17 -2 13 -5z m-1036 -217 c-6 -6
-11 -21 -11 -34 0 -13 -4 -23 -10 -23 -5 0 -10 11 -10 25 0 14 4 25 9 25 5 0
12 10 16 23 4 14 8 18 12 9 3 -8 0 -19 -6 -25z m-31 -103 c0 -15 -4 -23 -11
-19 -6 4 -8 14 -5 22 3 8 1 11 -4 8 -6 -3 -10 -1 -10 4 0 6 7 11 15 11 9 0 15
-10 15 -26z m-44 -90 c-9 -8 -16 -22 -16 -30 0 -8 -4 -14 -10 -14 -15 0 -12
23 5 46 8 10 15 28 15 40 0 34 15 38 18 5 2 -19 -3 -37 -12 -47z m14235 -74
c10 -6 19 -18 19 -27 0 -12 -3 -13 -14 -4 -11 10 -21 9 -45 -3 -16 -9 -39 -17
-49 -19 -10 -1 -31 -10 -45 -20 -54 -35 -64 -13 -14 29 57 48 110 64 148 44z
m-14295 -57 c-10 -10 -19 5 -10 18 6 11 8 11 12 0 2 -7 1 -15 -2 -18z m-29
-65 c-3 -7 -5 -2 -5 12 0 14 2 19 5 13 2 -7 2 -19 0 -25z m-1731 -53 c51 -42
141 -159 178 -233 14 -27 39 -70 56 -95 16 -25 44 -73 61 -108 18 -35 37 -67
43 -71 7 -5 4 -12 -9 -22 -17 -13 -18 -17 -5 -25 8 -6 11 -13 7 -17 -4 -4 -23
9 -42 29 -20 21 -34 37 -31 37 3 0 -11 17 -32 38 -20 21 -53 60 -72 86 -19 26
-47 60 -62 76 -16 15 -28 34 -28 41 0 12 -57 69 -69 69 -3 0 -17 16 -30 36
-16 22 -27 31 -31 23 -5 -7 -13 -8 -26 -1 -11 5 -29 8 -41 7 -14 -1 -23 5 -27
18 -4 15 -8 17 -23 9 -10 -6 -18 -16 -18 -24 -2 -44 -18 -117 -26 -112 -12 7
-11 151 1 159 6 3 10 22 10 41 0 22 6 37 15 40 8 4 15 12 15 19 0 15 46 24
103 20 26 -2 52 -15 83 -40z m-511 24 c22 -6 53 -13 68 -16 16 -3 31 -12 34
-19 3 -8 9 -14 13 -14 5 0 24 -15 42 -32 l34 -33 -3 -89 c-1 -50 -7 -114 -14
-144 -7 -36 -8 -57 -1 -64 6 -6 7 -22 1 -40 -7 -27 -12 -237 -7 -343 4 -93 1
-100 -46 -123 -24 -12 -50 -22 -58 -22 -9 0 -21 -7 -28 -15 -7 -9 -31 -15 -59
-16 l-46 -1 35 -8 c21 -5 52 -5 76 1 22 6 56 9 75 7 l34 -3 1 -90 c1 -49 -3
-112 -8 -140 -6 -27 -10 -115 -9 -195 0 -94 -4 -155 -12 -173 -13 -30 -60 -54
-125 -64 -18 -3 -35 -9 -38 -14 -3 -5 -18 -9 -35 -9 -16 0 -29 -4 -29 -8 0 -4
-12 -9 -27 -10 -14 -1 -29 -5 -32 -8 -9 -9 84 5 272 41 24 5 37 4 37 -3 0 -6
-6 -13 -12 -15 -10 -4 -10 -8 0 -15 11 -7 10 -11 -4 -16 -13 -5 -14 -10 -6
-18 9 -9 9 -15 0 -25 -8 -10 -7 -18 6 -31 9 -10 13 -22 9 -26 -5 -4 -9 -33
-10 -64 -3 -115 -16 -217 -27 -225 -6 -5 -2 -7 12 -4 15 4 22 0 22 -10 0 -18
-37 -53 -57 -53 -7 0 -16 -6 -19 -14 -3 -8 -16 -17 -30 -20 -40 -10 -29 -29
14 -22 88 16 122 18 122 7 0 -6 -9 -15 -20 -21 -11 -6 -20 -8 -20 -4 0 4 -9
-3 -20 -16 -11 -13 -20 -28 -20 -34 0 -6 -9 -17 -20 -24 -12 -7 -18 -17 -15
-21 3 -5 2 -17 -2 -26 -5 -16 -8 -15 -25 6 -10 13 -23 33 -29 44 -5 11 -18 34
-29 50 -11 17 -25 41 -30 55 -36 83 -84 185 -99 210 -12 19 -41 86 -41 94 0 3
7 6 16 6 42 0 211 66 199 78 -8 8 -87 2 -100 -8 -5 -4 -31 -11 -57 -14 -26 -4
-50 -12 -54 -17 -14 -24 -59 48 -104 166 -17 44 -39 96 -50 117 -23 41 -80
209 -80 234 0 19 39 53 61 54 9 0 30 7 45 15 16 8 37 15 46 15 9 0 20 5 23 10
3 6 14 10 24 10 19 0 59 26 51 33 -3 3 -43 -6 -90 -20 -47 -14 -96 -28 -110
-31 -13 -3 -30 -11 -38 -18 -43 -43 -87 66 -162 401 -6 28 -17 68 -23 90 -7
25 -12 108 -11 215 l1 175 31 60 c18 33 32 64 32 68 0 25 75 113 137 161 52
40 83 57 114 62 24 4 49 10 54 15 23 17 193 23 250 8z m1182 -31 c-3 -7 -5 -2
-5 12 0 14 2 19 5 13 2 -7 2 -19 0 -25z m1039 -15 c-10 -10 -19 5 -10 18 6 11
8 11 12 0 2 -7 1 -15 -2 -18z m-18 -83 c0 -9 -3 -7 -8 5 l-9 20 0 -20 c-1 -11
-8 -38 -16 -60 l-14 -40 -1 33 c0 17 5 32 10 32 6 0 10 13 10 29 0 16 3 38 7
48 6 16 8 15 14 -7 4 -14 7 -32 7 -40z m14069 -76 c25 -14 42 -28 40 -31 -3
-2 -29 9 -59 26 -29 17 -47 31 -39 31 8 0 34 -12 58 -26z m-14120 -56 c-3 -8
-6 -5 -6 6 -1 11 2 17 5 13 3 -3 4 -12 1 -19z m14188 2 c3 -5 1 -10 -4 -10 -6
0 -11 5 -11 10 0 6 2 10 4 10 3 0 8 -4 11 -10z m-15746 -243 c96 -178 209
-406 215 -432 4 -16 3 -25 -1 -20 -32 42 -85 133 -117 200 -21 44 -48 93 -59
110 -12 16 -37 60 -57 97 -19 37 -45 79 -58 93 -13 15 -26 43 -29 63 l-5 37
39 -43 c21 -23 54 -70 72 -105z m16601 -528 c0 8 2 12 5 9 3 -3 2 -20 -2 -38
-5 -29 -7 -31 -14 -15 -4 11 -8 29 -8 40 -1 17 1 17 9 5 8 -12 10 -12 10 -1z
m903 -90 c22 -13 56 -49 57 -61 0 -13 -18 -9 -34 7 -34 34 -118 27 -162 -13
-10 -9 -31 -25 -46 -35 -16 -10 -28 -24 -28 -31 0 -8 -3 -16 -8 -18 -23 -10
-232 -334 -232 -360 0 -5 -13 -28 -29 -51 -15 -23 -43 -73 -61 -112 -36 -78
-38 -81 -46 -73 -3 3 6 34 20 69 15 34 26 66 26 71 0 5 27 64 60 131 33 68 60
128 60 135 0 7 5 12 10 12 6 0 10 9 10 19 0 11 4 22 9 25 5 3 28 38 52 78 47
78 127 172 168 200 31 20 141 24 174 7z m-18023 -1275 c0 -8 -4 -12 -10 -9 -5
3 -10 10 -10 16 0 5 5 9 10 9 6 0 10 -7 10 -16z m15369 -103 c-6 -18 -14 -30
-17 -27 -2 3 1 19 8 36 16 40 23 33 9 -9z m-13669 15 c0 -3 -4 -8 -10 -11 -5
-3 -10 -1 -10 4 0 6 5 11 10 11 6 0 10 -2 10 -4z m13644 -71 c3 -8 1 -27 -5
-42 -5 -15 -8 -37 -5 -50 7 -27 -7 -61 -56 -134 -21 -31 -38 -61 -38 -66 0 -6
-13 -29 -30 -51 -16 -23 -30 -46 -30 -51 0 -5 -4 -11 -8 -13 -5 -1 -26 -32
-48 -68 -21 -36 -48 -75 -59 -87 -11 -13 -29 -40 -40 -60 -11 -21 -32 -51 -47
-68 -15 -16 -38 -47 -53 -69 -14 -21 -42 -55 -61 -75 -19 -20 -51 -60 -72 -90
-20 -30 -48 -67 -62 -82 -14 -15 -56 -64 -95 -109 -84 -98 -396 -411 -493
-495 -74 -64 -182 -151 -327 -264 -49 -39 -106 -84 -125 -100 -51 -44 -88 -70
-298 -206 -42 -28 -96 -59 -119 -69 -24 -11 -43 -23 -43 -27 0 -4 -12 -14 -27
-22 -107 -55 -166 -88 -192 -106 -16 -12 -71 -43 -123 -70 -51 -26 -106 -56
-123 -65 -16 -9 -66 -33 -110 -54 -44 -21 -89 -44 -100 -50 -18 -10 -50 -24
-120 -52 -11 -5 -56 -25 -100 -45 -89 -41 -103 -47 -160 -65 -22 -7 -53 -18
-70 -25 -97 -43 -124 -54 -160 -65 -22 -7 -49 -16 -60 -21 -46 -19 -184 -68
-240 -84 -137 -42 -241 -76 -257 -85 -10 -6 -25 -10 -33 -10 -9 0 -44 -8 -78
-19 -34 -10 -87 -24 -117 -31 -30 -7 -86 -24 -125 -37 -79 -28 -117 -37 -225
-53 -41 -6 -91 -16 -110 -20 -19 -5 -78 -17 -130 -25 -52 -9 -116 -23 -142
-31 -26 -8 -62 -14 -81 -14 -19 0 -47 -4 -63 -10 -16 -5 -78 -14 -139 -20 -60
-5 -141 -14 -180 -19 -402 -54 -736 -75 -1195 -75 -391 0 -599 10 -885 44
-181 22 -264 31 -450 50 -55 5 -111 12 -125 16 -14 4 -54 10 -90 14 -36 4
-123 20 -195 34 -143 29 -184 37 -325 62 -52 9 -106 21 -120 26 -26 11 -111
34 -271 73 -53 13 -136 37 -185 53 -49 17 -116 37 -149 47 -79 22 -288 92
-340 114 -11 5 -47 17 -80 26 -33 10 -82 29 -110 41 -27 13 -72 31 -100 39
-52 17 -77 27 -185 77 -36 16 -74 33 -85 38 -71 29 -242 107 -310 141 -105 54
-255 136 -300 164 -27 18 -68 40 -90 50 -22 10 -59 31 -82 47 -23 15 -44 28
-48 28 -3 0 -21 11 -39 25 -18 14 -37 25 -41 25 -4 0 -24 12 -44 28 -19 15
-54 38 -76 52 -23 14 -57 37 -76 53 -19 15 -62 46 -96 70 -97 66 -195 138
-234 172 -19 18 -54 42 -77 55 -23 13 -42 27 -42 31 0 5 -21 24 -47 44 -106
80 -247 234 -230 251 7 8 57 -15 57 -26 0 -5 7 -10 15 -10 8 0 15 -6 15 -13 0
-7 13 -20 29 -30 30 -17 292 -224 301 -237 3 -4 16 -13 29 -20 13 -7 42 -29
65 -50 23 -20 53 -43 68 -51 14 -8 55 -34 90 -59 35 -25 83 -57 108 -72 25
-15 57 -38 72 -52 15 -14 30 -26 33 -26 3 0 32 -17 63 -37 77 -50 87 -56 162
-94 36 -18 67 -36 70 -40 10 -13 162 -99 176 -99 8 0 14 -3 14 -7 0 -5 15 -17
33 -27 36 -22 166 -86 174 -86 3 0 17 -8 31 -18 15 -11 61 -32 102 -48 41 -16
119 -50 172 -76 53 -27 102 -48 107 -48 10 0 45 -14 136 -56 84 -39 126 -54
151 -54 12 0 25 -4 28 -9 3 -4 20 -11 38 -15 18 -3 56 -17 83 -30 63 -30 144
-56 171 -56 11 0 24 -3 28 -7 4 -5 29 -13 54 -20 26 -6 84 -25 130 -41 45 -16
99 -33 120 -37 20 -3 91 -22 157 -41 177 -51 289 -80 390 -98 50 -9 135 -28
190 -40 121 -29 279 -56 325 -56 18 0 47 -4 64 -9 17 -6 69 -14 116 -20 47 -6
128 -18 180 -27 116 -20 213 -30 435 -43 94 -6 240 -16 325 -22 253 -18 1112
2 1305 31 39 5 95 12 125 14 53 3 370 47 475 66 28 5 100 16 160 25 61 9 146
26 190 37 44 11 125 28 180 39 123 24 249 54 335 80 36 11 94 28 130 39 111
33 364 111 385 119 11 4 56 20 100 35 203 69 355 124 405 148 30 14 73 32 95
39 22 8 74 30 115 50 41 19 95 44 119 55 55 24 299 147 366 184 60 33 99 54
140 71 17 7 46 25 65 39 19 15 62 39 95 55 33 16 76 41 95 55 19 14 53 35 75
45 22 11 42 22 45 25 3 3 12 10 21 15 49 30 190 128 195 136 3 5 31 27 64 49
32 21 64 45 71 53 8 7 52 41 99 76 122 90 169 127 222 174 25 23 72 65 104 92
81 70 463 457 469 475 3 8 18 24 34 34 16 11 36 31 44 45 9 14 32 44 52 66 20
22 47 56 59 75 13 19 36 49 50 65 15 17 47 59 71 95 24 36 57 82 74 104 17 21
31 43 31 48 0 5 6 15 13 23 7 7 36 46 63 86 27 41 52 76 57 77 4 2 7 8 7 14 0
5 15 33 34 61 33 50 106 200 106 217 0 4 7 10 15 14 8 3 15 12 15 21 0 19 16
20 24 0z m1986 -105 c58 -6 129 -19 158 -29 62 -23 155 -82 237 -150 33 -28
68 -56 78 -63 15 -11 7 -13 -55 -14 -206 -2 -825 -27 -836 -33 -22 -12 480
-44 635 -40 111 3 147 1 150 -8 3 -9 -8 -14 -34 -15 -35 -1 -36 -1 -6 -5 l31
-4 -16 -32 c-9 -18 -20 -34 -23 -37 -11 -10 -48 -141 -43 -154 3 -7 -1 -18 -9
-24 -8 -7 -12 -23 -10 -36 3 -16 -2 -28 -17 -39 -21 -14 -21 -16 -3 -25 15 -9
15 -11 3 -15 -36 -12 -202 -27 -405 -39 -266 -15 -232 -22 165 -34 146 -4 256
-10 245 -12 -11 -2 -24 -8 -29 -13 -6 -5 -19 -9 -29 -9 -10 0 -30 -9 -44 -20
-14 -11 -21 -20 -14 -20 20 0 12 -27 -14 -44 -14 -9 -25 -23 -25 -31 0 -8 -4
-15 -9 -15 -5 0 -12 -12 -15 -26 -4 -15 -14 -33 -21 -41 -8 -8 -15 -23 -15
-34 0 -12 -7 -19 -19 -19 -11 0 -22 -8 -26 -18 -3 -11 -17 -24 -30 -30 -16 -8
-25 -20 -25 -35 0 -13 -6 -29 -12 -36 -10 -11 -10 -13 0 -7 6 4 12 2 12 -3 0
-6 -18 -14 -41 -17 -27 -5 -38 -11 -35 -20 4 -9 -5 -11 -32 -8 l-37 4 29 -14
29 -13 -34 -7 c-19 -4 -83 -14 -143 -22 -60 -8 -115 -18 -123 -23 -8 -4 86
-13 209 -20 283 -16 282 -16 228 -23 -80 -11 -353 -31 -430 -31 -129 0 -168 6
-174 27 -4 15 -12 17 -40 14 -31 -3 -35 -1 -30 14 4 13 0 18 -14 18 -11 0 -31
9 -45 21 -15 11 -37 22 -49 25 -68 13 -77 13 -91 -1 -12 -11 -17 -12 -20 -2
-3 6 -6 -3 -6 -21 -2 -58 -18 -25 -25 50 -7 80 -12 91 -30 66 -7 -10 -16 -14
-20 -10 -4 3 -16 -4 -26 -18 -15 -20 -21 -22 -33 -12 -11 9 -17 10 -22 2 -4
-6 -15 -8 -25 -5 -13 4 -17 1 -16 -12 0 -12 -7 -19 -21 -21 -14 -2 -23 2 -23
10 0 8 -4 6 -11 -4 -5 -10 -16 -18 -24 -18 -7 0 -16 -13 -20 -30 -4 -16 -10
-30 -14 -30 -13 0 -68 -60 -111 -120 -21 -30 -44 -60 -50 -67 -5 -7 -10 -16
-10 -21 0 -14 -37 -44 -43 -35 -8 12 57 168 90 217 15 23 34 55 43 71 25 46
98 126 183 200 40 34 35 34 385 15 212 -12 262 -8 262 20 0 25 -28 28 -312 40
-217 9 -286 14 -345 26 -23 4 -40 41 -52 115 -10 63 2 69 134 69 84 0 105 3
105 14 0 16 -23 22 -125 31 -89 9 -102 16 -117 68 -17 56 -18 415 -1 425 6 4
14 27 18 52 10 67 23 79 163 151 88 45 178 69 287 78 116 9 602 3 725 -9z
m-15602 -282 c-6 -18 -28 -21 -28 -4 0 9 7 16 16 16 9 0 14 -5 12 -12z m-38
-22 c0 -3 -4 -8 -10 -11 -5 -3 -10 -1 -10 4 0 6 5 11 10 11 6 0 10 -2 10 -4z
m101 -696 c30 -31 39 -48 39 -75 0 -28 -5 -37 -22 -44 -13 -5 -32 -18 -42 -30
-23 -25 -42 -27 -50 -5 -3 8 -10 12 -16 9 -5 -3 -10 1 -10 9 0 9 -4 16 -9 16
-16 0 -41 62 -41 102 0 43 18 56 79 57 26 1 42 -7 72 -39z m14041 5 c15 -14
32 -25 38 -25 5 0 10 -23 10 -52 0 -46 -4 -58 -35 -90 -18 -21 -38 -38 -44
-38 -5 0 -16 -6 -23 -13 -7 -7 -25 -20 -39 -29 -15 -10 -29 -30 -33 -48 -3
-17 -15 -44 -26 -60 -11 -15 -20 -39 -20 -52 0 -13 -6 -32 -14 -43 -7 -11 -17
-40 -22 -65 -4 -25 -9 -47 -10 -50 0 -3 -5 -20 -9 -38 -4 -19 -14 -36 -21 -39
-8 -3 -14 -14 -14 -24 0 -12 -7 -19 -20 -19 -13 0 -20 7 -20 19 0 11 -5 23
-11 27 -8 5 -10 36 -5 103 8 133 47 305 87 389 28 57 119 152 146 152 12 0 25
5 28 10 10 16 29 12 57 -15z m-13664 -229 c-3 -23 -8 -49 -12 -59 -7 -14 -4
-17 14 -15 34 4 44 -34 18 -67 -18 -23 -20 -36 -15 -92 9 -119 -16 -177 -135
-316 -18 -20 -34 -42 -36 -47 -2 -6 -12 -10 -22 -10 -11 0 -22 -11 -28 -30 -6
-16 -22 -35 -36 -42 -15 -6 -26 -15 -26 -20 0 -5 -4 -7 -8 -4 -4 2 -17 -9 -27
-25 -11 -16 -25 -27 -32 -25 -6 3 -17 -2 -23 -10 -7 -8 -18 -14 -26 -14 -7 0
-25 -11 -40 -25 l-28 -26 -14 28 c-15 27 -15 27 -23 5 -5 -14 -14 -20 -23 -16
-16 6 -49 -21 -59 -48 -9 -24 -40 -11 -34 13 3 12 0 19 -9 19 -8 0 -14 -10
-14 -26 0 -22 -2 -25 -15 -14 -13 11 -15 4 -15 -51 -1 -54 -2 -61 -13 -44 -21
36 -47 119 -47 152 0 17 -4 35 -10 38 -28 17 10 224 62 335 36 77 111 159 168
183 14 6 57 35 97 64 39 29 74 53 78 53 3 0 39 24 78 53 40 30 95 66 122 82
28 15 53 33 58 40 4 8 21 16 37 20 17 4 31 12 31 18 1 7 4 1 6 -12 3 -13 3
-42 1 -65z m-629 43 c65 -14 169 -64 198 -96 28 -29 31 -58 6 -45 -18 8 -37 8
-168 -2 -38 -3 -92 -7 -120 -8 -27 -2 -49 -8 -47 -13 4 -12 -36 -23 -59 -17
-26 6 -42 46 -35 86 5 24 18 44 44 64 52 41 98 49 181 31z m-1590 -263 c-1
-17 -2 -16 -9 6 -4 14 -11 32 -15 40 -3 7 1 4 9 -6 9 -11 16 -29 15 -40z
m17124 37 c-7 -2 -19 -2 -25 0 -7 3 -2 5 12 5 14 0 19 -2 13 -5z m-17106 -85
c-3 -8 -6 -5 -6 6 -1 11 2 17 5 13 3 -3 4 -12 1 -19z m16474 -380 c46 -23 77
-44 68 -46 -8 -1 -49 2 -90 9 -41 6 -92 11 -113 12 -22 0 -34 3 -28 5 7 2 12
17 12 33 0 26 3 29 34 29 20 0 68 -17 117 -42z m-191 -44 c0 -8 7 -14 16 -14
8 0 13 -4 9 -10 -3 -5 -13 -7 -23 -4 -10 4 -13 2 -7 -3 6 -4 11 -20 10 -35 0
-30 -3 -28 -33 23 -20 33 -20 37 -5 52 18 18 33 14 33 -9z m-455 5 c163 -1
200 -3 166 -11 -46 -10 -80 -33 -60 -40 6 -2 -16 -30 -50 -63 -33 -33 -61 -68
-61 -78 0 -10 -7 -20 -15 -23 -8 -4 -12 -10 -9 -16 3 -5 -3 -12 -15 -15 -12
-3 -21 -11 -21 -19 0 -16 -43 -64 -58 -64 -12 0 -92 -88 -92 -102 0 -5 -4 -7
-9 -4 -5 4 -7 -3 -4 -14 4 -15 1 -18 -13 -16 -29 6 -64 -11 -64 -31 -1 -19
-64 -73 -87 -73 -24 0 -28 -3 -42 -32 -8 -16 -20 -27 -27 -24 -7 3 -24 -4 -37
-15 -14 -10 -30 -19 -36 -19 -5 0 -26 -11 -46 -24 -21 -14 -43 -22 -52 -19
-11 4 -14 2 -9 -5 4 -7 1 -12 -6 -12 -21 0 -88 -37 -81 -44 3 -3 -8 -9 -25
-12 -18 -4 -32 -11 -32 -16 0 -5 -4 -7 -9 -4 -17 11 8 258 39 381 31 120 106
279 152 320 99 91 143 106 298 99 52 -2 190 -4 305 -5z m1162 -15 c-3 -3 -12
-4 -19 -1 -8 3 -5 6 6 6 11 1 17 -2 13 -5z m-2213 -81 c-14 -21 -36 -60 -49
-88 -14 -27 -41 -71 -62 -98 -21 -26 -54 -69 -74 -95 -42 -56 -119 -102 -119
-72 0 10 7 31 15 46 8 16 15 36 15 45 0 18 65 89 82 89 6 0 8 9 5 20 -3 11 -1
20 4 20 5 0 15 11 21 25 6 14 19 25 29 25 11 0 20 11 24 32 4 17 16 41 28 52
16 17 19 18 14 4 -10 -29 22 -22 35 7 7 16 19 25 34 25 l23 0 -25 -37z
m-13114 -68 c0 -8 -4 -15 -10 -15 -5 0 -10 7 -10 15 0 8 5 15 10 15 6 0 10 -7
10 -15z m-93 -57 c-3 -8 -6 -5 -6 6 -1 11 2 17 5 13 3 -3 4 -12 1 -19z m2123
-408 c28 -30 56 -50 69 -50 11 0 21 -4 21 -10 0 -5 9 -10 20 -10 16 0 20 -7
20 -30 0 -16 -5 -30 -11 -30 -6 0 -18 -7 -27 -16 -15 -15 -14 -16 8 -9 14 4
32 14 41 21 23 20 34 17 47 -11 17 -36 45 -68 124 -141 13 -12 30 -28 38 -37
118 -123 253 -248 281 -261 32 -15 37 -22 35 -49 -1 -26 3 -32 20 -32 14 -1
71 -50 163 -143 77 -78 141 -146 141 -152 0 -6 11 -20 25 -32 16 -14 23 -28
19 -40 -4 -14 0 -18 18 -18 34 0 64 -25 95 -78 14 -26 38 -59 52 -73 14 -14
33 -34 41 -45 16 -20 50 -130 50 -162 0 -22 35 -55 117 -110 35 -23 72 -50 84
-59 26 -22 159 -185 159 -195 0 -5 -24 11 -54 35 -29 23 -82 65 -117 92 -34
28 -71 58 -81 67 -10 10 -22 18 -28 18 -5 0 -10 4 -10 9 0 5 -8 12 -17 15 -10
4 -31 24 -47 45 -27 37 -58 56 -71 43 -13 -14 -52 -8 -72 10 -12 11 -34 20
-50 20 -43 1 -196 28 -215 39 -10 5 -27 9 -38 9 -13 0 -22 9 -26 25 -8 32 -30
32 -60 -1 -19 -20 -25 -22 -30 -10 -3 8 -1 23 5 34 6 12 8 28 5 37 -6 14 -10
13 -30 -10 -13 -15 -25 -32 -27 -38 -3 -9 -9 -8 -21 2 -10 8 -25 16 -34 17
-35 5 -193 44 -202 49 -6 4 -10 1 -10 -5 0 -6 -4 -9 -9 -6 -5 4 -12 0 -14 -6
-3 -7 -6 -4 -6 7 0 11 6 29 14 39 8 11 15 26 15 33 0 7 20 42 45 79 49 71 58
95 22 61 -30 -29 -97 -124 -97 -138 0 -6 -7 -17 -15 -25 -8 -8 -21 -24 -28
-34 -13 -19 -15 -19 -83 8 -38 15 -70 30 -72 34 -2 5 -13 8 -23 8 -25 0 -79
27 -79 40 0 17 -18 11 -23 -7 -3 -12 -5 -10 -6 7 0 14 6 38 14 54 8 15 15 34
15 41 0 8 8 28 17 47 31 62 33 68 25 68 -4 0 -16 -17 -27 -37 -11 -21 -37 -66
-58 -100 -31 -49 -43 -61 -60 -58 -12 2 -42 6 -67 10 -66 9 -85 27 -83 78 1
23 7 43 13 45 5 2 10 11 10 20 0 8 29 61 65 117 35 55 67 110 71 120 13 35
-124 -144 -148 -193 -12 -26 -33 -60 -45 -75 -13 -16 -23 -35 -23 -43 0 -20
-10 -17 -35 10 -20 21 -62 41 -255 120 -54 22 -72 35 -105 81 -63 86 -74 124
-74 254 -1 98 3 125 25 190 57 166 115 271 150 271 6 0 18 7 25 16 41 49 268
161 359 177 70 12 82 8 130 -43z m-3070 -120 c41 -12 96 -25 121 -30 53 -10
125 -28 154 -40 11 -5 37 -14 57 -20 21 -6 40 -16 43 -21 4 -5 19 -9 34 -9 15
0 31 -4 37 -8 5 -5 45 -16 89 -26 44 -10 88 -22 97 -27 10 -5 25 -9 34 -9 9 0
30 -6 47 -14 49 -22 156 -40 407 -70 460 -54 602 -86 732 -165 37 -23 72 -41
78 -41 5 0 10 -4 10 -9 0 -5 12 -11 28 -14 77 -16 231 -176 297 -309 19 -38
34 -58 46 -58 10 0 20 -4 23 -9 6 -8 71 -18 206 -30 41 -3 80 -9 87 -13 21
-14 32 -64 19 -89 -15 -31 -54 -38 -151 -27 -138 14 -187 28 -216 59 -25 27
-35 30 -160 44 -74 8 -148 18 -166 21 -37 7 -73 38 -73 63 0 32 25 43 82 37
29 -4 87 -10 128 -15 41 -5 85 -12 98 -16 12 -4 22 -3 22 1 0 11 -190 196
-239 233 -34 26 -35 26 -29 4 4 -13 2 -23 -4 -23 -7 0 -9 -15 -5 -39 4 -36 3
-39 -22 -44 -14 -2 -107 -19 -206 -36 -99 -18 -193 -38 -210 -45 -71 -31 -551
-49 -785 -31 -272 22 -423 42 -513 66 -42 11 -153 26 -257 34 -30 3 -96 10
-147 16 -51 6 -100 9 -109 5 -16 -6 -15 -8 2 -20 27 -20 11 -30 -33 -19 -23 5
-42 17 -47 30 -11 25 -56 32 -214 36 -73 1 -105 6 -111 15 -5 8 -11 13 -15 13
-20 -3 -26 1 -26 19 0 12 -5 17 -14 14 -10 -4 -16 11 -23 60 -14 95 6 204 55
304 42 86 173 205 242 218 16 4 30 10 30 14 0 4 12 10 28 13 15 3 50 13 77 21
70 22 263 14 365 -14z m13620 20 c0 -5 -8 -10 -17 -10 -14 0 -15 -2 -4 -9 8
-5 10 -14 6 -22 -6 -9 -4 -11 7 -6 11 4 19 -3 26 -21 21 -55 22 -70 7 -148 -8
-43 -17 -92 -19 -108 -3 -16 -11 -33 -17 -37 -6 -4 -9 -12 -5 -18 4 -5 -2 -16
-14 -23 -22 -14 -26 -34 -8 -40 7 -3 2 -14 -13 -30 -41 -44 -54 -62 -54 -73 0
-5 -7 -10 -15 -10 -8 0 -17 -10 -20 -22 -3 -12 -15 -33 -27 -47 -12 -13 -17
-26 -11 -28 5 -2 -14 -22 -43 -44 -30 -21 -55 -47 -57 -57 -4 -20 -67 -87 -83
-87 -5 0 -14 -11 -21 -25 -6 -13 -14 -22 -18 -20 -4 2 -20 -9 -35 -25 -16 -17
-36 -30 -45 -30 -27 0 -60 -42 -53 -68 3 -15 1 -22 -8 -22 -8 0 -72 -29 -144
-64 -244 -120 -387 -170 -610 -211 -38 -7 -90 -18 -114 -23 -26 -6 -53 -7 -67
-2 -14 6 -26 5 -29 0 -4 -6 -12 -4 -21 5 -8 8 -31 17 -52 21 -111 18 -300 94
-287 114 5 9 43 2 60 -10 26 -19 219 -70 265 -70 24 0 31 5 35 27 11 52 48
138 87 199 58 93 211 224 262 224 9 0 16 3 16 8 0 4 9 12 19 17 26 14 171 84
201 98 14 6 41 23 60 37 19 14 53 35 74 45 53 27 202 176 250 250 67 102 139
198 175 230 19 16 46 40 60 53 14 12 37 25 51 28 14 4 34 12 45 19 21 13 58
22 145 34 30 5 56 9 58 10 1 0 2 -3 2 -9z m53 -47 c-7 -2 -19 -2 -25 0 -7 3
-2 5 12 5 14 0 19 -2 13 -5z m77 -317 c0 -16 -28 -42 -36 -33 -8 7 14 47 26
47 6 0 10 -6 10 -14z m-601 -632 c-6 -7 -15 -11 -21 -8 -5 3 -4 12 3 20 6 7
15 11 21 8 5 -3 4 -12 -3 -20z m-10872 -42 c17 -11 -28 -103 -63 -128 -14 -11
-46 -34 -70 -52 -44 -33 -101 -59 -110 -49 -4 4 47 59 87 94 8 6 41 41 74 77
65 70 64 70 82 58z m2657 -171 c11 -18 -86 -44 -224 -61 -41 -4 -82 -11 -90
-14 -38 -14 -216 -34 -224 -25 -13 12 22 38 51 39 12 0 32 4 45 9 84 33 429
73 442 52z m-594 -161 c0 -5 -2 -10 -4 -10 -3 0 -8 5 -11 10 -3 6 -1 10 4 10
6 0 11 -4 11 -10z m1527 -26 c89 -16 162 -44 183 -69 11 -13 11 -20 0 -40 -7
-14 -19 -25 -26 -25 -6 0 -34 -15 -62 -34 -54 -38 -87 -48 -210 -66 -184 -28
-402 28 -402 102 0 25 65 87 99 95 14 3 31 9 36 13 10 8 40 13 145 29 89 13
148 12 237 -5z m5566 -116 c34 -40 20 -68 -59 -115 -95 -57 -119 -52 -119 26
0 41 5 55 29 80 43 44 114 49 149 9z"/>
<path d="M4598 11283 c7 -3 16 -2 19 1 4 3 -2 6 -13 5 -11 0 -14 -3 -6 -6z"/>
<path d="M8168 10703 c7 -3 16 -2 19 1 4 3 -2 6 -13 5 -11 0 -14 -3 -6 -6z"/>
<path d="M10968 10673 c6 -2 18 -2 25 0 6 3 1 5 -13 5 -14 0 -19 -2 -12 -5z"/>
<path d="M10960 10629 c0 -5 5 -7 10 -4 6 3 10 8 10 11 0 2 -4 4 -10 4 -5 0
-10 -5 -10 -11z"/>
<path d="M11025 10570 c-3 -5 -1 -10 4 -10 6 0 11 5 11 10 0 6 -2 10 -4 10 -3
0 -8 -4 -11 -10z"/>
<path d="M9478 9673 c7 -3 16 -2 19 1 4 3 -2 6 -13 5 -11 0 -14 -3 -6 -6z"/>
<path d="M9461 9613 c-14 -11 -14 -12 -1 -13 8 0 21 -9 28 -20 9 -16 23 -20
62 -20 49 0 50 1 50 29 0 29 -1 29 -62 33 -38 2 -67 -2 -77 -9z"/>
<path d="M8871 9374 c0 -11 3 -14 6 -6 3 7 2 16 -1 19 -3 4 -6 -2 -5 -13z"/>
<path d="M7858 8963 c12 -2 32 -2 45 0 12 2 2 4 -23 4 -25 0 -35 -2 -22 -4z"/>
<path d="M7505 8870 c3 -5 8 -10 11 -10 2 0 4 5 4 10 0 6 -5 10 -11 10 -5 0
-7 -4 -4 -10z"/>
<path d="M3969 8621 c-19 -16 -20 -20 -8 -21 17 0 45 27 37 35 -3 3 -16 -3
-29 -14z"/>
<path d="M3706 8355 c-3 -8 -1 -15 4 -15 13 0 22 18 11 24 -5 3 -11 -1 -15 -9z"/>
<path d="M3680 8295 c0 -14 5 -25 10 -25 6 0 10 11 10 25 0 14 -4 25 -10 25
-5 0 -10 -11 -10 -25z"/>
<path d="M3650 8250 c0 -5 7 -10 16 -10 8 0 12 5 9 10 -3 6 -10 10 -16 10 -5
0 -9 -4 -9 -10z"/>
<path d="M3585 8181 c5 -16 4 -21 -4 -17 -6 4 -11 2 -11 -3 0 -17 20 -13 27 5
3 8 0 21 -7 27 -10 10 -11 7 -5 -12z"/>
<path d="M3540 8109 c0 -5 5 -7 10 -4 6 3 10 8 10 11 0 2 -4 4 -10 4 -5 0 -10
-5 -10 -11z"/>
<path d="M3563 8063 c-22 -8 -14 -23 12 -23 16 0 25 6 25 15 0 15 -14 18 -37
8z"/>
<path d="M3511 8034 c0 -11 3 -14 6 -6 3 7 2 16 -1 19 -3 4 -6 -2 -5 -13z"/>
<path d="M3840 8030 c0 -5 7 -10 15 -10 8 0 15 5 15 10 0 6 -7 10 -15 10 -8 0
-15 -4 -15 -10z"/>
<path d="M1430 8210 c0 -5 5 -10 11 -10 5 0 7 5 4 10 -3 6 -8 10 -11 10 -2 0
-4 -4 -4 -10z"/>
<path d="M1555 6580 c-3 -5 1 -10 9 -10 9 0 16 5 16 10 0 6 -4 10 -9 10 -6 0
-13 -4 -16 -10z"/>
<path d="M508 6703 c6 -2 18 -2 25 0 6 3 1 5 -13 5 -14 0 -19 -2 -12 -5z"/>
<path d="M18515 4270 c3 -5 8 -10 11 -10 2 0 4 5 4 10 0 6 -5 10 -11 10 -5 0
-7 -4 -4 -10z"/>
<path d="M18478 4233 c6 -2 18 -2 25 0 6 3 1 5 -13 5 -14 0 -19 -2 -12 -5z"/>
<path d="M18550 4236 c0 -2 9 -6 20 -9 11 -3 20 -1 20 4 0 5 -9 9 -20 9 -11 0
-20 -2 -20 -4z"/>
<path d="M2345 2430 c-3 -5 -1 -10 4 -10 6 0 11 5 11 10 0 6 -2 10 -4 10 -3 0
-8 -4 -11 -10z"/>
<path d="M4530 1210 c-8 -5 -12 -12 -9 -15 4 -3 12 1 19 10 14 17 11 19 -10 5z"/>
<path d="M5027 912 c-19 -20 -23 -37 -7 -27 10 6 33 45 27 45 -2 0 -11 -8 -20
-18z"/>
<path d="M6930 11993 c0 -4 7 -33 16 -65 18 -61 34 -76 34 -30 0 15 3 44 6 65
6 36 6 37 -25 37 -17 0 -31 -3 -31 -7z"/>
<path d="M7768 11978 c-2 -15 -11 -24 -25 -26 -13 -2 -23 -8 -23 -13 0 -5 10
-9 23 -10 l22 0 -22 -11 c-12 -6 -34 -28 -49 -50 -21 -30 -32 -37 -48 -33 -19
6 -19 4 4 -16 14 -12 24 -26 22 -32 -2 -6 4 -5 12 2 8 7 13 18 10 25 -3 8 2
16 10 19 10 4 13 1 9 -9 -5 -14 -1 -14 32 0 21 9 48 16 60 16 42 0 47 23 25
108 -11 43 -18 52 -36 52 -16 0 -24 -7 -26 -22z"/>
<path d="M7949 11998 c0 -2 -2 -45 -4 -96 -4 -92 7 -117 19 -44 5 35 15 50 78
120 l20 22 -56 0 c-31 0 -56 -1 -57 -2z"/>
<path d="M8158 11968 c22 -22 33 -44 37 -77 3 -25 8 -54 10 -63 2 -10 -1 -21
-6 -24 -5 -3 -9 -14 -9 -25 0 -36 -25 -99 -39 -99 -11 0 -11 -3 0 -16 10 -12
24 -15 56 -10 24 3 53 2 65 -3 28 -11 70 -46 63 -53 -3 -3 1 -11 10 -18 8 -7
15 -20 14 -29 0 -10 -2 -12 -6 -3 -3 7 -19 20 -36 30 -30 16 -51 20 -119 22
-20 1 -36 14 -63 50 -24 33 -45 51 -66 55 -22 5 -36 18 -54 53 l-25 47 6 -40
c3 -22 10 -54 15 -71 13 -41 10 -214 -3 -214 -6 0 -5 -7 3 -16 11 -13 9 -14
-12 -9 -17 4 -30 1 -38 -9 -9 -11 -10 -16 -2 -16 6 0 11 -4 11 -10 0 -15 -26
-12 -40 5 -13 15 -55 22 -46 7 2 -4 -10 -8 -29 -8 -19 0 -31 4 -28 9 3 5 -4 4
-16 -2 -17 -10 -22 -9 -27 4 -3 8 -14 15 -24 15 -23 0 -33 14 -56 80 -10 30
-22 60 -27 67 -9 12 -47 14 -47 2 0 -4 -10 -11 -22 -15 -13 -4 -36 -18 -53
-32 -18 -15 -31 -20 -33 -13 -3 8 -8 7 -16 -4 -10 -14 -25 -20 -57 -24 -3 -1
-16 -10 -29 -21 -14 -12 -37 -20 -60 -20 -20 0 -40 -4 -46 -10 -17 -17 -91
-21 -104 -5 -17 20 -30 10 -30 -23 0 -15 -9 -52 -20 -82 -11 -30 -20 -56 -20
-57 0 -1 -9 0 -21 2 -11 2 -32 -3 -45 -12 -25 -16 -52 -21 -151 -27 -64 -3
-83 11 -108 82 -14 39 -21 47 -30 38 -9 -9 -7 -33 11 -106 28 -112 29 -127 9
-132 -8 -2 -11 -8 -7 -15 6 -9 21 -9 67 3 33 9 74 18 90 20 17 3 39 9 50 14
11 5 44 14 73 20 28 7 55 16 58 21 3 5 18 9 34 9 16 0 31 4 34 9 3 5 20 11 38
14 33 5 122 23 253 51 39 8 86 20 105 25 19 6 49 11 67 11 17 0 35 5 38 10 3
6 24 10 46 10 22 0 49 4 59 10 10 5 64 13 119 16 56 4 104 11 107 16 3 4 20 8
39 8 33 0 73 7 205 36 72 16 193 29 405 44 77 6 192 14 255 20 189 16 757 22
1035 11 377 -16 905 -55 965 -71 19 -6 45 -10 57 -10 21 0 23 5 22 50 -1 27 4
56 10 64 6 7 9 20 5 29 -9 23 43 116 77 136 17 10 53 22 81 25 l50 7 -5 37
c-3 20 -13 71 -22 112 -9 41 -19 85 -21 98 -4 22 -5 22 -191 22 -153 0 -193
-3 -225 -17 -36 -16 -38 -20 -38 -60 0 -58 -23 -101 -58 -109 -15 -3 -33 -8
-41 -10 -7 -2 -30 1 -51 7 -36 11 -40 10 -79 -21 -56 -46 -116 -48 -160 -6
-25 24 -31 38 -31 71 l0 42 -48 -1 c-42 -1 -53 4 -80 31 -18 17 -32 41 -32 52
0 21 -4 21 -208 21 l-207 0 -11 -27 c-6 -16 -17 -44 -25 -63 -17 -44 -78 -107
-112 -115 -44 -11 -72 16 -119 115 l-42 90 -168 0 c-92 0 -168 -2 -168 -4 0
-3 11 -17 25 -32 51 -55 79 -184 40 -184 -7 0 -15 -6 -18 -14 -10 -26 -126
-55 -202 -51 -139 6 -300 131 -313 242 l-5 43 -249 0 -250 0 30 -32z"/>
<path d="M10440 11996 c0 -2 11 -11 26 -20 21 -14 31 -15 59 -6 58 19 50 30
-19 30 -36 0 -66 -2 -66 -4z"/>
<path d="M7680 11920 c0 -6 7 -10 15 -10 8 0 15 2 15 4 0 2 -7 6 -15 10 -8 3
-15 1 -15 -4z"/>
<path d="M12290 11840 c-12 -8 -10 -10 8 -10 13 0 20 4 17 10 -7 12 -6 12 -25
0z"/>
<path d="M7966 11805 c-3 -8 -1 -15 4 -15 6 0 10 7 10 15 0 8 -2 15 -4 15 -2
0 -6 -7 -10 -15z"/>
<path d="M12465 11810 c-3 -5 -1 -10 4 -10 6 0 11 5 11 10 0 6 -2 10 -4 10 -3
0 -8 -4 -11 -10z"/>
<path d="M7630 11755 c0 -8 7 -15 15 -15 8 0 15 7 15 15 0 8 -7 15 -15 15 -8
0 -15 -7 -15 -15z"/>
<path d="M3477 11669 c6 -23 9 -24 16 -5 3 8 0 17 -7 19 -10 4 -12 -1 -9 -14z"/>
<path d="M3540 11675 c0 -8 5 -15 10 -15 6 0 10 7 10 15 0 8 -4 15 -10 15 -5
0 -10 -7 -10 -15z"/>
<path d="M3461 11654 c0 -11 3 -14 6 -6 3 7 2 16 -1 19 -3 4 -6 -2 -5 -13z"/>
<path d="M3544 11575 c-3 -7 -4 -22 -1 -32 4 -15 5 -14 6 4 0 12 9 23 19 25
16 3 16 4 -1 11 -11 4 -20 2 -23 -8z"/>
<path d="M11228 11373 c7 -3 16 -2 19 1 4 3 -2 6 -13 5 -11 0 -14 -3 -6 -6z"/>
<path d="M14215 11340 c3 -5 13 -10 21 -10 8 0 12 5 9 10 -3 6 -13 10 -21 10
-8 0 -12 -4 -9 -10z"/>
<path d="M5860 11300 c0 -5 4 -10 9 -10 6 0 13 5 16 10 3 6 -1 10 -9 10 -9 0
-16 -4 -16 -10z"/>
<path d="M5220 10841 c25 -5 61 -14 80 -20 42 -13 150 -15 150 -2 0 16 -31 21
-154 26 -81 3 -106 1 -76 -4z"/>
<path d="M14920 10799 c0 -5 5 -7 10 -4 6 3 10 8 10 11 0 2 -4 4 -10 4 -5 0
-10 -5 -10 -11z"/>
<path d="M14670 10655 c-10 -13 -9 -15 9 -15 11 0 21 4 21 9 0 18 -18 21 -30
6z"/>
<path d="M18170 10000 c-8 -5 -11 -12 -8 -16 4 -3 14 1 23 10 18 17 9 21 -15
6z"/>
<path d="M15040 9576 c0 -2 7 -7 16 -10 8 -3 12 -2 9 4 -6 10 -25 14 -25 6z"/>
<path d="M16750 9455 c0 -16 6 -25 15 -25 9 0 15 9 15 25 0 16 -6 25 -15 25
-9 0 -15 -9 -15 -25z"/>
<path d="M16991 9454 c0 -11 3 -14 6 -6 3 7 2 16 -1 19 -3 4 -6 -2 -5 -13z"/>
<path d="M16951 9414 c0 -11 3 -14 6 -6 3 7 2 16 -1 19 -3 4 -6 -2 -5 -13z"/>
<path d="M15287 9364 c6 -15 23 -19 23 -5 0 5 -7 11 -14 14 -10 4 -13 1 -9 -9z"/>
<path d="M15220 9350 c0 -9 39 -25 46 -18 2 3 -7 10 -21 16 -14 6 -25 7 -25 2z"/>
<path d="M15304 9325 c-12 -8 -24 -11 -28 -7 -4 3 -4 -1 -1 -11 6 -15 8 -15
23 0 16 15 17 15 20 0 4 -20 13 -22 29 -6 9 9 8 15 -2 25 -17 17 -16 17 -41
-1z"/>
<path d="M15490 9331 c0 -5 7 -15 17 -22 15 -13 15 -12 4 9 -12 23 -21 28 -21
13z"/>
<path d="M15180 9310 c0 -5 5 -10 10 -10 6 0 10 5 10 10 0 6 -4 10 -10 10 -5
0 -10 -4 -10 -10z"/>
<path d="M15635 9240 c-3 -5 -1 -10 4 -10 6 0 11 5 11 10 0 6 -2 10 -4 10 -3
0 -8 -4 -11 -10z"/>
<path d="M2957 9193 c-3 -5 -1 -17 4 -28 7 -17 8 -17 8 8 1 27 -4 34 -12 20z"/>
<path d="M2937 9083 c8 -52 13 -54 13 -5 0 23 -4 42 -9 42 -6 0 -7 -17 -4 -37z"/>
<path d="M2817 9085 c-4 -8 -2 -17 3 -20 6 -4 10 3 10 14 0 25 -6 27 -13 6z"/>
<path d="M3051 9037 c-1 -16 -8 -36 -17 -44 -11 -11 -14 -26 -9 -50 3 -20 2
-33 -5 -33 -5 0 -10 5 -10 10 0 6 -4 10 -8 10 -9 0 -21 -22 -47 -90 -9 -25
-21 -52 -25 -61 -5 -9 -12 -33 -15 -53 -4 -20 -11 -39 -16 -42 -5 -3 -9 -12
-9 -20 0 -20 -37 -101 -50 -109 -5 -3 -10 -16 -10 -29 0 -12 -4 -26 -9 -32 -7
-8 -35 -96 -73 -226 -6 -21 -15 -38 -20 -38 -4 0 -8 -9 -8 -20 0 -10 -9 -42
-20 -70 -11 -28 -20 -56 -20 -62 0 -15 79 104 124 186 21 38 48 80 60 92 12
13 30 41 41 61 11 21 22 40 25 43 35 34 103 162 91 170 -5 3 -2 48 5 100 8 52
18 129 23 171 4 42 11 80 14 85 3 5 2 25 -3 44 -7 33 -8 33 -9 7z"/>
<path d="M17975 6190 c-3 -11 -2 -28 4 -37 8 -15 10 -11 11 20 0 41 -5 47 -15
17z"/>
<path d="M2332 4860 c0 -14 2 -19 5 -12 2 6 2 18 0 25 -3 6 -5 1 -5 -13z"/>
<path d="M1802 4310 c0 -19 2 -27 5 -17 2 9 2 25 0 35 -3 9 -5 1 -5 -18z"/>
<path d="M682 3215 c0 -16 2 -22 5 -12 2 9 2 23 0 30 -3 6 -5 -1 -5 -18z"/>
</g>
</svg>
